<?xml version="1.0" standalone="no"?>
<!DOCTYPE svg PUBLIC "-//W3C//DTD SVG 20010904//EN"
 "http://www.w3.org/TR/2001/REC-SVG-20010904/DTD/svg10.dtd">
<svg version="1.0" xmlns="http://www.w3.org/2000/svg"
 width="1280.000000pt" height="1280.000000pt" viewBox="0 0 1280.000000 1280.000000"
 preserveAspectRatio="xMidYMid meet">
<metadata>
Created by potrace 1.15, written by Peter Selinger 2001-2017
</metadata>
<g transform="translate(0.000000,1280.000000) scale(0.100000,-0.100000)"
fill="#000000" stroke="none">
<path d="M6313 12057 c-212 -419 -363 -785 -502 -1219 -674 -2097 -584 -4466
244 -6459 78 -187 333 -719 345 -719 12 0 267 532 345 719 602 1450 820 3122
619 4751 -116 938 -375 1867 -739 2645 -74 160 -219 445 -225 445 -3 0 -42
-73 -87 -163z"/>
<path d="M330 8827 c0 -11 107 -316 148 -423 248 -646 612 -1301 1042 -1874
932 -1244 2189 -2224 3555 -2770 264 -105 695 -249 695 -231 0 4 -20 65 -44
136 -503 1487 -1500 2845 -2836 3866 -733 560 -1579 1002 -2401 1254 -143 44
-159 48 -159 42z"/>
<path d="M12405 8815 c-22 -7 -112 -36 -199 -64 -1521 -490 -3013 -1592 -4017
-2966 -502 -686 -862 -1372 -1115 -2120 -24 -71 -44 -132 -44 -137 0 -9 59 8
310 92 750 249 1491 641 2170 1145 1367 1017 2401 2408 2911 3915 27 79 49
146 49 147 0 6 -26 1 -65 -12z"/>
<path d="M2155 3719 c-614 -38 -1225 -175 -1757 -392 -196 -81 -250 -106 -244
-116 16 -25 376 -215 570 -301 1320 -583 2892 -655 4252 -194 174 59 524 202
524 214 0 9 -232 137 -385 214 -871 432 -1933 639 -2960 575z"/>
<path d="M9900 3719 c-786 -49 -1559 -250 -2215 -575 -153 -77 -385 -205 -385
-214 0 -5 65 -34 239 -107 545 -228 1254 -380 1856 -399 88 -2 196 -6 240 -9
109 -5 477 12 660 31 832 85 1589 322 2258 706 48 28 90 55 93 59 9 16 -301
145 -541 226 -678 228 -1461 329 -2205 282z"/>
<path d="M5375 2249 c-960 -90 -1936 -618 -2547 -1379 -64 -80 -178 -240 -178
-251 0 -10 120 -5 300 12 604 57 1261 308 1789 685 333 238 645 549 860 857
l60 87 -97 -1 c-53 -1 -137 -5 -187 -10z"/>
<path d="M7201 2173 c215 -308 527 -619 860 -857 528 -377 1185 -628 1789
-685 170 -16 300 -21 300 -12 0 11 -115 173 -178 251 -616 767 -1589 1291
-2562 1379 -63 6 -150 11 -192 11 l-77 0 60 -87z"/>
</g>
</svg>
