<?xml version="1.0"?>
<svg xmlns="http://www.w3.org/2000/svg" xmlns:xlink="http://www.w3.org/1999/xlink" version="1.1" id="Layer_1" x="0px" y="0px" viewBox="0 0 511.999 511.999" style="enable-background:new 0 0 511.999 511.999;" xml:space="preserve" width="30px" height="30px" class=""><g><g>
	<g>
		<g>
			<path d="M434.351,168.441c-1.505-2.22-15.109-21.665-38.262-34.269c-13.096-7.128-26.803-10.742-40.74-10.742     c-10.271,0-20.718,1.987-31.052,5.905c-42.371,16.068-59.611,17.803-65.058,17.803c-0.575,0-0.977-0.021-1.226-0.04     c-1.788-0.754-2.238-0.752-4.027,0c-0.249,0.02-0.651,0.04-1.228,0.04c-5.444,0-22.681-1.734-65.057-17.803     c-10.334-3.919-20.782-5.906-31.052-5.906c-47.584,0-76.635,41.504-79.006,45.016c-30.722,42.1-39.03,99.381-24.02,165.661     c12.458,55.01,38.291,105.161,58.313,133.753c20.51,29.289,43.596,44.141,68.614,44.141c13.967,0,25.025-4.767,31.844-8.766     c9.546-5.599,29.783-8.971,37.381-9.879h12.453c7.591,0.904,27.807,4.263,37.38,9.881c6.817,3.998,17.875,8.764,31.842,8.765     c0.001,0,0.002,0,0.004,0c25.015,0,48.1-14.851,68.611-44.141c20.022-28.592,45.855-78.743,58.312-133.753     C473.385,267.823,465.077,210.54,434.351,168.441z M442.424,330.495c-11.934,52.697-36.627,100.664-55.758,127.984     c-17.272,24.663-35.849,37.168-55.217,37.167c-10.839-0.001-19.419-4.084-23.569-6.518     c-14.476-8.493-41.251-11.734-44.257-12.075c-0.306-0.035-0.614-0.052-0.923-0.052h-13.403c-0.309,0-0.617,0.017-0.924,0.052     c-3.005,0.341-29.779,3.583-44.255,12.074c-4.151,2.435-12.731,6.519-23.568,6.519c-19.37,0-37.948-12.505-55.217-37.167     c-19.131-27.319-43.825-75.286-55.759-127.984c-9.728-42.958-13.918-104.291,21.369-152.53c0.075-0.102,0.147-0.206,0.217-0.312     c0.251-0.378,25.547-37.869,65.489-37.869c8.282,0,16.779,1.63,25.254,4.843c43.288,16.416,62.974,18.867,70.855,18.866     c1.315,0,2.381-0.065,3.239-0.159c0.858,0.096,1.926,0.159,3.24,0.159c7.883,0,27.572-2.451,70.856-18.866     c8.475-3.213,16.972-4.842,25.254-4.842c11.175,0,22.251,2.944,32.921,8.751c20.372,11.089,32.456,28.951,32.566,29.116     c0.071,0.107,0.143,0.209,0.217,0.312C456.341,226.204,452.152,287.537,442.424,330.495z" data-original="#000000" class="active-path" data-old_color="#000000" fill="#4397BC"/>
			<path d="M164.3,46.012c61.27,0,78.882,42.939,82.867,78.961c0.463,4.184,4.005,7.279,8.117,7.279c0.3,0,0.604-0.017,0.909-0.051     c4.489-0.496,7.725-4.538,7.229-9.027c-1.807-16.332-7.061-39.855-21.828-59.168c-17.426-22.792-43.432-34.35-77.294-34.35     c-4.516,0-8.177,3.66-8.177,8.177S159.784,46.012,164.3,46.012z" data-original="#000000" class="active-path" data-old_color="#000000" fill="#4397BC"/>
			<path d="M288.34,110.627c7.482,2.209,15.306,3.286,23.231,3.285c21.751,0,44.249-8.111,62.444-23.163     c3.914-3.237,7.604-6.763,10.966-10.481c3.028-3.351,2.768-8.521-0.581-11.551c-3.349-3.028-8.521-2.767-11.551,0.581     c-2.835,3.136-5.948,6.111-9.257,8.847c-19.047,15.755-43.488,22.463-65.095,18.157c-0.137-19.031,8.211-38.853,22.977-54.021     c2.22-2.279,4.597-4.471,7.069-6.516c19.047-15.753,43.491-22.462,65.096-18.155c0.072,9.363-1.895,19.028-5.787,28.274     c-1.752,4.163,0.202,8.958,4.363,10.709c1.037,0.436,2.112,0.643,3.17,0.643c3.191,0,6.225-1.881,7.54-5.007     c5.738-13.631,8.051-28.122,6.69-41.907c-0.327-3.312-2.63-6.096-5.822-7.039c-28.024-8.272-60.849-0.656-85.675,19.879     c-2.922,2.418-5.735,5.011-8.361,7.708c0,0,0,0-0.001,0.001c-19.56,20.095-29.743,47.277-27.236,72.712     C282.845,106.9,285.147,109.683,288.34,110.627z" data-original="#000000" class="active-path" data-old_color="#000000" fill="#4397BC"/>
		</g>
	</g>
</g></g> </svg>
