<?xml version="1.0"?>
<svg xmlns="http://www.w3.org/2000/svg" xmlns:xlink="http://www.w3.org/1999/xlink" version="1.1" id="Capa_1" x="0px" y="0px" viewBox="0 0 512 512" style="enable-background:new 0 0 512 512;" xml:space="preserve" width="30px" height="30px"><g><g>
	<g>
		<g>
			<path d="M444.875,195.125l-53.333-53.333c-4.167-4.167-10.917-4.167-15.083,0c-4.167,4.167-4.167,10.917,0,15.083l3.885,3.885     l-80.646,80.646c-13.615-9.802-28.25-17.083-43.698-21.729V21.333h10.667c5.896,0,10.667-4.771,10.667-10.667     C277.333,4.771,272.563,0,266.667,0H160c-5.896,0-10.667,4.771-10.667,10.667c0,5.896,4.771,10.667,10.667,10.667h10.667v198.323     C107.448,238.396,64,296.031,64,362.667c0,54.548,29.49,102.219,73.272,128.281c-5.204,0.71-9.272,4.984-9.272,10.385     c0,5.896,4.771,10.667,10.667,10.667H288c5.896,0,10.667-4.771,10.667-10.667c0-5.401-4.068-9.676-9.272-10.385     c43.783-26.063,73.272-73.733,73.272-128.281c0-25.521-6.813-50.708-19.771-73.344l83.01-83l3.885,3.885     c2.083,2.083,4.813,3.125,7.542,3.125c2.729,0,5.458-1.042,7.542-3.125C449.042,206.042,449.042,199.292,444.875,195.125z      M321.885,280.167c-3.563,3.563-4.146,9.125-1.406,13.344c13.646,21.031,20.854,44.938,20.854,69.156     c0,70.583-57.417,128-128,128s-128-57.417-128-128c0-59.542,40.49-110.708,98.458-124.438c4.813-1.135,8.208-5.427,8.208-10.375     V21.333h42.667v206.521c0,4.948,3.396,9.24,8.208,10.375c18.323,4.344,35.49,12.948,51.031,25.594     c1.969,1.604,4.354,2.396,6.729,2.396c2.74,0,5.469-1.052,7.542-3.125l87.25-87.25l15.396,15.396L321.885,280.167z" data-original="#000000" class="active-path" data-old_color="#000000" fill="#313131"/>
			<path d="M175.458,439.125C146.188,424.563,128,395.26,128,362.667c0-5.896-4.771-10.667-10.667-10.667     c-5.896,0-10.667,4.771-10.667,10.667c0,40.75,22.719,77.365,59.292,95.563c1.521,0.76,3.146,1.115,4.74,1.115     c3.927,0,7.698-2.167,9.563-5.917C182.885,448.156,180.729,441.75,175.458,439.125z" data-original="#000000" class="active-path" data-old_color="#000000" fill="#313131"/>
		</g>
	</g>
</g></g> </svg>
