<?xml version="1.0"?>
<svg xmlns="http://www.w3.org/2000/svg" xmlns:xlink="http://www.w3.org/1999/xlink" version="1.1" id="Capa_1" x="0px" y="0px" viewBox="0 0 480 480" style="enable-background:new 0 0 480 480;" xml:space="preserve" width="30px" height="30px"><g><g>
	<g>
		<path d="M472,48h-40V8c0-4.418-3.582-8-8-8h-48c-4.418,0-8,3.582-8,8v60.688l-10.544-10.544    c-25.219-25.028-65.818-25.305-91.376-0.624L51.888,265.92c-25.756,25.051-26.328,66.238-1.277,91.994    c0.211,0.217,0.423,0.432,0.637,0.646l9.44,9.44H8c-4.418,0-8,3.582-8,8v48c0,4.418,3.582,8,8,8h40v40c0,4.418,3.582,8,8,8h48    c4.418,0,8-3.582,8-8v-52.688l10.544,10.544c25.22,25.023,65.816,25.301,91.376,0.624l214.192-208.4    c25.756-25.051,26.328-66.238,1.277-91.994c-0.211-0.217-0.423-0.432-0.637-0.646L411.312,112H472c4.418,0,8-3.582,8-8V56    C480,51.582,476.418,48,472,48z M277.232,68.992c19.275-18.611,49.889-18.405,68.912,0.464L372.688,96h-123.2L277.232,68.992z     M96,464H64v-40c0-4.418-3.582-8-8-8H16v-32h60.688L96,403.312V464z M202.768,419.008c-19.273,18.615-49.891,18.409-68.912-0.464    L131.312,416h74.552L202.768,419.008z M222.304,400H115.312l-32-32H255.2L222.304,400z M271.64,352H67.312l-4.752-4.752    c-9.326-9.255-14.519-21.885-14.4-35.024c0.048-2.759,0.323-5.51,0.824-8.224h272L271.64,352z M337.416,288H54.8    c2.251-3.895,5.023-7.464,8.24-10.608L101.472,240h285.28L337.416,288z M431.792,176c-0.105,13.058-5.448,25.527-14.832,34.608    L403.2,224H117.92l49.328-48H431.792z M417.44,140.752c5.401,5.4,9.459,11.993,11.848,19.248h-245.6l49.328-48h155.672    L417.44,140.752z M464,96h-68.688L384,84.688V16h32v40c0,4.418,3.582,8,8,8h40V96z" data-original="#000000" class="active-path" data-old_color="#000000" fill="#313131"/>
	</g>
</g></g> </svg>
