<?xml version="1.0"?>
<svg xmlns="http://www.w3.org/2000/svg" xmlns:xlink="http://www.w3.org/1999/xlink" version="1.1" id="Capa_1" x="0px" y="0px" viewBox="0 0 512.191 512.191" style="enable-background:new 0 0 512.191 512.191;" xml:space="preserve" width="30px" height="30px" class=""><g><g>
	<g>
		<path d="M99.277,273.257c-34.587,0-63.133,30.767-64.992,70.042l-0.075,3.917c0,4.713,3.82,8.533,8.533,8.533    s8.533-3.82,8.533-8.533l-0.009-1.708l0.067-1.4c1.425-30.158,22.484-53.783,47.942-53.783c4.713,0,8.533-3.82,8.533-8.533    S103.99,273.257,99.277,273.257z" data-original="#000000" class="active-path" data-old_color="#000000" fill="#4397BC"/>
	</g>
</g><g>
	<g>
		<path d="M273.073,343.408c-0.098-4.645-3.943-8.331-8.588-8.234c-0.079,0.002-0.158,0.004-0.237,0.008    c-4.706,0.159-8.393,4.103-8.234,8.81c0,0.005,0,0.01,0.001,0.015l0.075,3.392l-1.658,17.434    c-0.525,4.684,2.845,8.907,7.529,9.433c0.32,0.033,0.641,0.05,0.962,0.05c4.34-0.006,7.984-3.27,8.467-7.583l1.367-12.3    l0.383-6.492L273.073,343.408z" data-original="#000000" class="active-path" data-old_color="#000000" fill="#4397BC"/>
	</g>
</g><g>
	<g>
		<path d="M472.606,188.816c-0.396-0.567-0.883-1.175-1.575-2c-0.768-1.008-1.587-1.976-2.454-2.9    c-1.037-1.344-2.154-2.624-3.346-3.833l-0.063-0.067c-0.796-0.95-1.708-1.9-2.933-3.117l-0.183-0.192    c-0.187-0.23-0.401-0.437-0.638-0.617l-0.675-0.708c-0.446-0.458-0.833-0.842-1.1-1.075l-0.254-0.233    c-0.584-0.642-1.227-1.228-1.921-1.75C414.89,133.891,352.51,132.933,315.24,170.2c-12.21,12.182-20.736,27.561-24.599,44.371    c-15.306-11.292-26.52-27.259-31.947-45.488c-8.215-30.508,2.883-66.455,32.867-106.99c1.231,25.603,17.59,48.015,41.6,56.99    c15.099,5.738,31.127,8.64,47.279,8.558c27.441-0.353,54.394-7.305,78.583-20.267c4.076-2.359,5.467-7.576,3.108-11.651    c-0.103-0.178-0.213-0.353-0.329-0.524c-5.479-8.067-54.417-79.142-84.642-90.742c-23.17-9.113-49.521-4.01-67.613,13.095    c-37.148,0.548-72.493,16.109-97.982,43.139c-51.536,54.077-63.312,144.158-65.846,191.063    c-14.076-8.279-30.111-12.639-46.442-12.629c-52.571,0-95.917,44.583-99.05,102.075c-0.117,1.051-0.167,2.109-0.15,3.167v2.85    c0,1.575,0.009,3.283,0.104,4.208c0.021,1.902,0.142,3.802,0.362,5.692l-0.004,0.225c0.001,0.528,0.049,1.056,0.146,1.575    c0.017,0.233,0.037,0.458,0.058,0.683c7.067,85.7,73.954,152.592,152.933,152.592c57.323,0,108.147-35.327,134.482-87.419    c23.819,12.363,50.241,18.871,77.076,18.985c39.088,0.477,76.754-14.645,104.663-42.017    C525.152,346.491,526.29,255.016,472.606,188.816z M311.344,44.949c6.9-17.111,23.645-28.187,42.092-27.842    c6.021,0.004,11.99,1.117,17.608,3.283c19.021,7.3,53.679,51.967,71.021,76.333c-17.638,7.834-60.338,22.733-102.788,6.425    C315.53,94.749,303.043,68.731,311.344,44.949z M223.919,72.466c17.587-18.736,40.77-31.272,66.077-35.733    c-0.303,0.213-0.59,0.447-0.86,0.7c-41.792,50.725-57.579,96.517-46.925,136.092c5.711,19.968,17.364,37.724,33.409,50.911    c-13.132,4.161-25.153,11.238-35.164,20.702c-25.403-9.724-53.823-7.574-77.474,5.861    C165.719,205.889,177.218,121.465,223.919,72.466z M289.181,361.957c-0.008,0.217-0.012,0.442-0.004,0.658    c-8.208,74.775-66.708,132.508-135.5,132.508s-127.292-57.733-135.5-132.508c0.009-0.217,0.004-0.442-0.004-0.658l-0.917-19.85    c2.467-48.208,38.425-85.917,82.021-85.917c16.569,0.028,32.666,5.524,45.792,15.635c-0.047,5.737,0.05,9.398,0.079,10.248    c0.152,4.599,3.924,8.248,8.525,8.25c0.096,0,0.192,0,0.287-0.008c4.706-0.151,8.398-4.089,8.246-8.794c0-0.005,0-0.009,0-0.014    c-0.007-0.213-0.102-3.681-0.023-9.603c13.144-10.16,29.281-15.685,45.894-15.713c43.683,0,79.7,37.858,82.025,85.8    L289.181,361.957z M457.831,389.674c-40.987,40.983-106.944,48.526-162.678,19.443c6.176-15.87,10.035-32.547,11.457-49.518    c0.021-0.225,0.042-0.45,0.058-0.683c0.096-0.519,0.145-1.047,0.146-1.575l-0.004-0.217c0.205-1.676,0.318-3.362,0.337-5.05    c0.121-1.575,0.129-3.283,0.129-4.858v-2.85c0.013-0.996-0.03-1.992-0.129-2.983c-1.273-35.782-19.98-68.675-50.083-88.06    c10.742-8.44,23.57-13.815,37.12-15.553c5.943,3.639,12.184,6.769,18.655,9.355c0.95,0.355,1.956,0.535,2.971,0.533    c4.713,0.001,8.534-3.819,8.535-8.532c0.001-3.568-2.219-6.76-5.564-8.001c-4.373-1.781-8.619-3.859-12.708-6.218    c2.277-16.137,9.728-31.099,21.233-42.641c30.9-30.9,83.154-29.6,118.679,2.675l13.287,14.533    C507.51,258.874,506.902,340.599,457.831,389.674z" data-original="#000000" class="active-path" data-old_color="#000000" fill="#4397BC"/>
	</g>
</g><g>
	<g>
		<path d="M382.802,176.957L382.802,176.957c-16.215-0.234-31.851,6.021-43.429,17.376c-3.353,3.311-3.387,8.714-0.076,12.066    c3.311,3.353,8.713,3.387,12.066,0.076c0.025-0.025,0.051-0.05,0.076-0.076c8.388-8.138,19.677-12.593,31.362-12.375    c4.713,0,8.533-3.821,8.533-8.533C391.335,180.777,387.515,176.957,382.802,176.957z" data-original="#000000" class="active-path" data-old_color="#000000" fill="#4397BC"/>
	</g>
</g><g>
	<g>
		<path d="M469.646,293.305c-4.676-0.153-8.604,3.486-8.807,8.16c-0.627,24.021-10.326,46.914-27.146,64.075    c-3.338,3.324-3.361,8.714-0.037,12.052c0.008,0.009,0.017,0.017,0.037,0.014c3.33,3.332,8.732,3.333,12.064,0.003    c0.001-0.001,0.002-0.002,0.003-0.003c19.868-20.198,31.35-47.171,32.137-75.492C478.052,297.404,474.358,293.46,469.646,293.305z    " data-original="#000000" class="active-path" data-old_color="#000000" fill="#4397BC"/>
	</g>
</g></g> </svg>
