<?xml version="1.0"?>
<svg xmlns="http://www.w3.org/2000/svg" xmlns:xlink="http://www.w3.org/1999/xlink" version="1.1" id="Capa_1" x="0px" y="0px" viewBox="0 0 512.002 512.002" style="enable-background:new 0 0 512.002 512.002;" xml:space="preserve" width="30px" height="30px"><g><g>
	<g>
		<path d="M402.483,296.417c-4.106-0.576-7.895,2.279-8.472,6.381c-9.184,65.248-47.683,122.51-108.404,161.238    c-48.976,31.238-99.447,34.814-133.164,32.31c-29.655-2.2-47.308-36.046-28.879-61.178c45.337-61.9,40.437-128.346,37.856-147.237    c-0.014-0.104-0.031-0.207-0.049-0.31c-6.016-33.51,1.583-68.173,22.016-96.398c49.301-68.104,157.63-72.397,194.499,3.503    c0.082,0.169,0.168,0.334,0.261,0.495c10.854,20.378,17.188,46.576,17.841,73.803c0.1,4.142,3.553,7.407,7.678,7.318    c4.141-0.1,7.417-3.537,7.318-7.678c-1.432-59.716-27.682-119.068-85.172-138.389c2.766-5.051,5.675-9.896,8.695-14.579    c1.968,5.052,5.195,9.548,9.492,13.094c6.935,5.721,15.459,8.772,24.334,8.772c1.236,0,2.48-0.06,3.727-0.179    c10.195-0.977,19.4-5.866,25.918-13.766c3.051-3.698,5.492-7.812,7.256-12.226c1.537-3.847-0.336-8.211-4.182-9.748    c-3.847-1.535-8.211,0.336-9.748,4.182c-1.187,2.972-2.834,5.746-4.896,8.245c-3.968,4.81-9.572,7.786-15.779,8.381    c-6.204,0.594-12.274-1.263-17.084-5.232c-3.539-2.919-5.728-7.042-6.166-11.609c-0.399-4.17,0.721-8.246,3.139-11.618    c12.886-15.254,27.494-27.865,43.747-37.662c3.987-2.404,6.623-6.432,7.23-11.052c0.609-4.629-0.898-9.213-4.137-12.576    l-20.841-21.644c-7.969-8.276-21.458-7.432-28.326,1.775c-10.365,13.899-26.518,38.327-39.765,70.581    c-3.083-9.312-7.676-19.93-14.523-30.506c-2.252-3.477-6.896-4.471-10.372-2.22c-3.477,2.251-4.471,6.895-2.22,10.372    c11.056,17.077,15.5,34.27,17.261,44.335c-26.258-1.625-46.736-9.862-60.949-24.533c-20.754-21.422-23.37-51.696-23.376-65.489    c17.471,4.099,32.69,11.297,45.262,21.411c3.227,2.597,7.949,2.085,10.545-1.143c2.596-3.228,2.085-7.949-1.143-10.545    c-14.809-11.913-32.705-20.248-53.19-24.771c-8.357-1.848-16.315,4.419-16.458,12.977c-0.244,14.639,1.957,51.542,27.587,77.997    c16.574,17.107,39.787,26.797,69.058,28.922c-0.374,1.382-0.734,2.779-1.092,4.18c-48.397-3.027-95.104,18.683-123.582,58.023    c-21.318,29.448-30.4,65.473-25.607,101.52c0.017,0.401,0.066,0.806,0.15,1.211l0.064,0.329c0.251,1.751,0.487,3.23,0.735,4.626    c2.395,17.683,6.779,78.993-35.112,136.19c-12.301,16.778-13.45,37.23-4.974,54.584c8.599,17.604,25.363,28.977,44.843,30.422    c49.312,3.66,99.031-6.999,142.34-34.623c64.478-41.124,105.387-102.135,115.191-171.794    C409.441,300.787,406.584,296.994,402.483,296.417z M360.217,21.801c1.329-1.782,3.938-1.957,5.497-0.338    c0.314,0.326,21.195,21.789,20.808,22.022c-17.149,10.336-32.586,23.496-46.219,39.33c-0.225,0.212-0.443,0.435-0.645,0.68    c-0.268,0.325-0.523,0.657-0.777,0.99c-10.435,12.378-19.797,26.345-28.014,41.87c-0.006-0.001-0.589-0.102-1.021-0.182    C319.725,88.531,337.995,51.6,360.217,21.801z" data-original="#000000" class="active-path" data-old_color="#000000" fill="#4397BC"/>
	</g>
</g></g> </svg>
