<?xml version="1.0"?>
<svg xmlns="http://www.w3.org/2000/svg" height="30px" viewBox="-34 0 511 511.99949" width="30px" class=""><g><path d="m325.074219 238.628906c-5.523438 0-10.003907-4.46875-10.003907-9.984375 0-5.511719 4.472657-9.980469 9.996094-9.980469h.007813c5.523437 0 10 4.46875 10 9.980469 0 5.515625-4.476563 9.984375-10 9.984375zm0 0" data-original="#000000" class="active-path" data-old_color="#000000" fill="#313131"/><path d="m441.230469 101.628906c-45.144531-41.027344-84.058594-59.074218-115.632813-53.65625-9.582031 1.648438-17.101562 5.273438-22.832031 9.265625-4.644531-16.789062-13.324219-35.226562-28.675781-53.644531-3.53125-4.230469-9.839844-4.808594-14.082032-1.289062-4.25 3.535156-4.820312 9.824218-1.289062 14.066406 20.242188 24.265625 29.894531 51.226562 28.664062 80.125-.039062 1.03125-.101562 2.039062-.171874 3.027344-.007813.1875-.027344.386718-.039063.578124-.699219 9.34375-2.46875 17.230469-4.160156 22.980469-.308594 1.066407-.621094 2.054688-.929688 2.972657-12.613281-2.746094-25.433593-4.113282-38.285156-4.113282-21.324219 0-42.714844 3.773438-63.339844 11.351563-34.703125 12.757812-61.804687 33.738281-80.546875 62.367187-17.292968 26.414063-26.804687 58.234375-28.292968 94.589844-.042969.308594-.070313.628906-.089844.949219-2.632813 58.144531-40.464844 91.105469-52.898438 101.9375-21.761718 18.964843-24.101562 43.710937-6.101562 64.574219 38.617187 44.746093 100.132812 54.289062 145.550781 54.289062h1.597656c58.128907-.289062 112.253907-15.691406 140.9375-28.789062 44.375-20.261719 82.3125-57.097657 104.0625-101.046876 23.003907-46.476562 26.496094-96.707031 9.832031-141.445312-16.980468-45.578125-50.625-81.835938-94.742187-102.085938-6.03125-2.765624-12.160156-5.191406-18.371094-7.277343.890625-2.765625 1.808594-6.019531 2.660157-9.695313 15.652343 12.480469 34.761718 18.828125 56.625 18.828125 8.164062 0 16.703124-.890625 25.585937-2.664062 29.5625-5.921875 52.472656-19.707031 53.433594-20.292969 2.691406-1.640625 4.453125-4.445312 4.75-7.566406.3125-3.136719-.886719-6.222656-3.21875-8.335938zm-129.824219 55.140625c39.273438 18.027344 69.230469 50.308594 84.351562 90.90625 14.71875 39.527344 11.519532 84.15625-9.011718 125.644531-19.753906 39.90625-54.179688 73.347657-94.453125 91.734376-26.882813 12.277343-77.769531 26.710937-132.714844 26.980468-41.363281.1875-97.800781-7.847656-131.894531-47.355468-10.761719-12.476563-9.382813-24.757813 4.109375-36.515626 9.351562-8.152343 23.183593-21.128906 35.164062-39.585937 14.851563-22.871094 23.082031-48.226563 24.503907-75.394531.058593-.371094.089843-.75.109374-1.140625 1.210938-33.117188 9.652344-61.878907 25.082032-85.464844 8.171875-12.476563 18.203125-23.308594 30.015625-32.421875 11.820312-9.113281 25.410156-16.507812 40.703125-22.128906 40.714844-14.964844 84.761718-13.277344 124.035156 4.742187zm70.425781-38.421875c-31.730469 6.238282-56.765625-.859375-74.457031-21.09375.210938-5.140625.140625-10.820312-.410156-16.917968 2.859375-3.652344 9.871094-10.742188 22.511718-12.765626 15.992188-2.558593 43.796876 2.582032 87.382813 39.265626-8.664063 3.957031-21.113281 8.777343-35.027344 11.511718zm0 0" data-original="#000000" class="active-path" data-old_color="#000000" fill="#313131"/><path d="m277.164062 443.992188c-3.792968 0-7.417968-2.164063-9.101562-5.832032-2.296875-5.011718-.085938-10.9375 4.933594-13.230468 28.9375-13.214844 53.671875-37.238282 67.863281-65.910157 14.703125-29.707031 17.007813-61.625 6.488281-89.871093-1.925781-5.164063.710938-10.910157 5.890625-12.832032 5.171875-1.921875 10.933594.710938 12.859375 5.878906 12.460938 33.449219 9.863282 70.976563-7.304687 105.667969-16.191407 32.714844-44.429688 60.132813-77.472657 75.222657-1.347656.613281-2.761718.90625-4.15625.90625zm0 0" data-original="#000000" class="active-path" data-old_color="#000000" fill="#313131"/></g> </svg>
