<?xml version="1.0"?>
<svg xmlns="http://www.w3.org/2000/svg" xmlns:xlink="http://www.w3.org/1999/xlink" version="1.1" id="Capa_1" x="0px" y="0px" viewBox="0 0 512 512" style="enable-background:new 0 0 512 512;" xml:space="preserve" width="30px" height="30px" class=""><g><g>
	<g>
		<path d="M506.886,374.729c-2.25-1.365-55.865-33.552-122.885-33.552c-6.901,0-13.75,0.273-20.523,0.689    c15.727-8.539,31.572-18.428,46.232-29.876C480.5,256.719,510.25,166.927,511.479,163.135c1.135-3.51,0.385-7.365-2-10.188    c-2.396-2.802-6.021-4.104-9.719-3.656c-3.063,0.458-75.646,11.865-142.083,72.25c-17.954,16.323-34.208,34.449-48.491,52.256    C315.52,249.091,320,221.378,320,191.844C320,89.688,267.167,8.073,264.917,4.656c-3.938-6-13.896-6-17.833,0    C244.833,8.073,192,89.688,192,191.844c0,29.534,4.48,57.247,10.814,81.954c-14.283-17.807-30.536-35.934-48.491-52.256    C87.885,161.156,15.302,149.75,12.24,149.292c-3.635-0.448-7.312,0.854-9.719,3.656c-2.385,2.823-3.135,6.677-2,10.188    C1.75,166.927,31.5,256.719,102.292,311.99c14.66,11.448,30.505,21.337,46.232,29.876c-6.773-0.415-13.622-0.689-20.523-0.689    c-67.021,0-120.635,32.188-122.885,33.552c-3.188,1.948-5.125,5.417-5.115,9.146c0.01,3.74,1.979,7.198,5.177,9.115    C7.458,394.354,61.802,426.51,128,426.51c14.766,0,29.318-2.121,43.143-5.341c-22.628,26.651-21.87,57.598-21.799,59.133    c0.146,3.281,1.792,6.323,4.469,8.229c1.823,1.302,3.99,1.979,6.188,1.979c1.021,0,2.042-0.146,3.042-0.438    c1.604-0.479,39.771-12.115,69.021-45.917c5.244-6.059,9.471-12.064,13.271-17.958v74.979c0,5.896,4.771,10.667,10.667,10.667    c5.896,0,10.667-4.771,10.667-10.667v-74.979c3.799,5.895,8.027,11.9,13.271,17.958c29.25,33.802,67.417,45.438,69.021,45.917    c1,0.292,2.021,0.438,3.042,0.438c2.198,0,4.365-0.677,6.188-1.979c2.677-1.906,4.323-4.948,4.469-8.229    c0.07-1.536,0.837-32.563-21.878-59.234c13.9,3.279,28.496,5.443,43.221,5.443c67.021,0,120.635-32.188,122.885-33.552    c3.177-1.938,5.115-5.396,5.115-9.115S510.063,376.667,506.886,374.729z M372.031,237.333    c41.896-38.094,87.208-55.313,112.01-62.448c-12.156,28.354-40.229,83.417-87.458,120.292    c-39.115,30.542-88.646,50.156-118.01,60.021C296,326.344,329.625,275.885,372.031,237.333z M115.417,295.177    c-47.125-36.792-75.25-91.896-87.438-120.281c24.802,7.135,70.104,24.354,111.99,62.438c42.354,38.5,76,88.99,93.448,117.854    C204.052,345.323,154.531,325.708,115.417,295.177z M128,405.177c-38.542,0-73.437-12.406-93.646-21.396    c20.01-8.958,54.594-21.271,93.646-21.271c38.677,0,77.188,7.948,100.927,14.021C205.854,388.563,166.938,405.177,128,405.177z     M215.938,430.198c-14.146,16.333-31.021,26.76-43.094,32.76c2.927-11.438,9.75-26.729,25.552-38.583    c16.021-12.01,29-20.969,38.875-27.438C232.823,406.771,226.073,418.479,215.938,430.198z M257.875,348.142    c-0.629,1.064-1.296,2.177-1.875,3.171c-0.579-0.993-1.246-2.107-1.875-3.171c-15.107-29.094-40.792-88.369-40.792-156.298    c0-70.656,27.906-132.302,42.667-159.979c14.76,27.677,42.667,89.323,42.667,159.979    C298.667,259.773,272.982,319.048,257.875,348.142z M296.063,430.198c-10.063-11.625-16.802-23.344-21.26-33.208    c9.875,6.458,22.823,15.406,38.802,27.385c15.885,11.917,22.698,27.208,25.604,38.656    C327.167,457.063,310.313,446.656,296.063,430.198z M384,405.177c-38.427,0-77.531-16.646-100.792-28.698    c23.729-6.052,62.125-13.969,100.792-13.969c38.99,0,73.708,12.375,93.75,21.344C457.75,392.823,423.115,405.177,384,405.177z" data-original="#000000" class="active-path" data-old_color="#000000" fill="#313131"/>
	</g>
</g></g> </svg>
