<?xml version="1.0"?>
<svg xmlns="http://www.w3.org/2000/svg" xmlns:xlink="http://www.w3.org/1999/xlink" version="1.1" id="Capa_1" x="0px" y="0px" viewBox="0 0 511.844 511.844" style="enable-background:new 0 0 511.844 511.844;" xml:space="preserve" width="30px" height="30px"><g><g>
	<g>
		<path d="M411.696,106.872c-0.099-0.354-0.181-0.726-0.326-1.053c-0.367-0.952-0.828-2.005-1.572-2.879    c-32.251-37.965-73.028-37.53-110.13-9.062c-0.43-47.643-21.266-76.591-33.739-89.665c-5.505-5.783-14.377-5.449-19.565,0    c-12.473,13.074-33.309,42.031-33.739,89.675c-8.782-6.732-21.226-14.424-35.77-18.185c-4.011-1.04-8.102,1.38-9.143,5.391    c-1.03,4.011,1.38,8.102,5.391,9.143c23.917,6.172,42.031,25.907,42.212,26.097c4.793,5.321,13.703,1.465,13.034-5.722    c-3.237-34.73,4.534-69.628,27.798-94.896c23.244,25.248,31.038,60.13,27.798,94.896c-0.669,7.185,8.225,11.065,13.034,5.722    c0.26-0.28,25.557-27.938,56.105-27.938c13.654,0,26.524,5.704,38.356,16.935c-23.419,8.643-61.766,27.654-76.687,51.784    c-18.968-9.592-40.044-14.364-61.417-13.904c-4.141,0.09-7.432,3.521-7.342,7.662c0.09,4.141,3.541,7.472,7.662,7.342    c12.507-0.301,25.708,1.519,38.42,5.712l-35.93,24.807l-35.888-24.779c2.234-0.735,4.158-1.311,5.609-1.708    c3.991-1.09,6.342-5.221,5.251-9.213c-1.1-4.001-5.221-6.352-9.223-5.261c-8.601,2.358-16.986,5.664-24.287,9.353    c-20.696-33.599-58.656-45.572-78.932-49.674c8.932-9.092,18.485-14.984,28.478-17.545c4.021-1.02,6.442-5.111,5.411-9.122    c-1.03-4.021-5.121-6.442-9.122-5.411c-14.864,3.801-28.638,13.074-40.951,27.568c-5.474,6.446-1.979,16.778,6.542,18.045    c14.554,2.151,54.885,10.973,75.461,43.762c-26.179,17.299-45.96,44.098-54.32,75.477c-5.376,20.188-4.553,22.448-4.365,141.388    c0.105,74.13,62.041,133.288,135.956,130.111c4.141-0.18,7.352-3.681,7.172-7.822c-0.18-4.141-3.681-7.352-7.812-7.172    c-14.746,0.626-28.989-1.54-42.142-6.042l37.16-25.657l37.12,25.627c-4.255,1.476-9.088,1.965-9.726,7.521    c-0.746,4.98,3.585,10.059,9.556,8.293c51.658-15.406,88.933-61.374,92.997-114.978c0.654-8.521,0.341-121.334,0.326-121.855    c-1.23-42.042-22.803-81.326-58.714-105.01c14.114-22.696,58.283-42.712,78.809-48.493    C410.505,115.004,412.826,110.863,411.696,106.872z M305.238,240.859l-49.093,33.899l-49.093-33.899l49.093-33.899    L305.238,240.859z M242.941,369.894l-49.093,33.899l-49.083-33.899l49.083-33.899L242.941,369.894z M144.764,283.87l49.083-33.899    l49.093,33.899l-49.093,33.899L144.764,283.87z M207.052,326.882l49.093-33.899l49.093,33.899l-49.093,33.899L207.052,326.882z     M318.442,335.995l49.083,33.899l-49.083,33.899l-49.093-33.899L318.442,335.995z M318.442,317.77l-49.093-33.899l49.093-33.899    l49.083,33.899L318.442,317.77z M203.793,170.82l39.149,27.026l-49.093,33.899l-33.075-22.847    C172.082,192.253,187.074,179.381,203.793,170.82z M153.139,221.862l27.505,18.997l-39.704,27.422    C141.659,252.56,145.616,236.779,153.139,221.862z M140.813,299.375l39.831,27.508l-39.831,27.508V299.375z M140.893,385.448    l39.751,27.458l-28.037,19.364C145.356,417.534,141.425,401.625,140.893,385.448z M202.723,483.693    c-17.61-9.247-32.132-22.67-42.604-38.388l33.729-23.286l49.093,33.899L202.723,483.693z M256.145,446.805l-49.093-33.899    l49.093-33.899l49.093,33.899L256.145,446.805z M309.489,483.636l-40.139-27.72l49.093-33.899l33.572,23.174    C341.424,461.068,327.058,474.373,309.489,483.636z M359.539,432.171l-27.894-19.265l39.748-27.448    C370.838,401.38,366.97,417.161,359.539,432.171z M371.477,354.39l-39.831-27.508l39.831-27.508V354.39z M371.353,268.282    l-39.706-27.424l27.568-19.035C366.361,235.977,370.594,251.659,371.353,268.282z M351.59,208.851l-33.148,22.895l-49.093-33.899    l39.183-27.052C325.834,179.677,340.565,192.687,351.59,208.851z" data-original="#000000" class="active-path" data-old_color="#000000" fill="#4397BC"/>
	</g>
</g></g> </svg>
