<?xml version="1.0"?>
<svg xmlns="http://www.w3.org/2000/svg" xmlns:xlink="http://www.w3.org/1999/xlink" version="1.1" id="Capa_1" x="0px" y="0px" viewBox="0 0 512 512" style="enable-background:new 0 0 512 512;" xml:space="preserve" width="30px" height="30px"><g><g>
	<g>
		<path d="M376.62,452.899c-0.714,0-1.426,0.015-2.135,0.043c-15.406-50.368-61.835-85-115.108-85c-1.547,0-3.088,0.032-4.626,0.091    c-0.512,0.02-1.019,0.061-1.53,0.087c-1.023,0.053-2.046,0.102-3.063,0.181c-0.609,0.047-1.213,0.116-1.82,0.172    c-0.913,0.085-1.828,0.164-2.737,0.269c-0.646,0.075-1.288,0.171-1.932,0.256c-0.863,0.114-1.726,0.224-2.584,0.356    c-0.665,0.103-1.324,0.225-1.986,0.339c-0.83,0.143-1.661,0.282-2.486,0.442c-0.673,0.13-1.339,0.279-2.009,0.42    c-0.807,0.171-1.614,0.339-2.415,0.526c-0.675,0.158-1.344,0.331-2.015,0.5c-0.788,0.198-1.576,0.395-2.358,0.609    c-0.672,0.184-1.338,0.382-2.006,0.577c-0.772,0.226-1.544,0.451-2.31,0.692c-0.667,0.21-1.329,0.432-1.992,0.653    c-0.731,0.244-1.463,0.487-2.188,0.745c0.18-1.014,0.365-2.028,0.581-3.046l13.373-62.891l27.839,5.917l-0.862,6.795    c-2.471,19.491,10.648,37.96,29.865,42.045c2.607,0.554,5.22,0.821,7.803,0.821c16.451,0,31.682-10.824,36.582-27.083l1.976-6.557    l27.839,5.918l-10.391,48.88c-0.861,4.051,1.725,8.035,5.777,8.897c0.526,0.112,1.05,0.165,1.567,0.165    c3.465,0,6.58-2.416,7.33-5.943l11.951-56.216c0.414-1.946,0.038-3.977-1.046-5.646c-1.083-1.668-2.785-2.837-4.732-3.251    l-33.951-7.216l1.805-5.988c0.605-2.008,0.342-4.179-0.727-5.985c-1.068-1.805-2.844-3.081-4.896-3.517l-22.396-4.761    l-19.928-4.236l43.468-204.505c1.579,0.577,3.184,1.102,4.814,1.574c0.058,0.017,0.115,0.036,0.173,0.053    c0.705,0.202,1.416,0.39,2.13,0.572c0.135,0.035,0.27,0.074,0.405,0.108c0.758,0.189,1.522,0.363,2.29,0.529    c0.084,0.018,0.168,0.04,0.252,0.058c1.132,0.241,2.268,0.444,3.408,0.631c0.31,0.051,0.62,0.1,0.931,0.147    c1.001,0.151,2.005,0.286,3.01,0.396c0.226,0.025,0.451,0.05,0.677,0.073c0.781,0.078,1.564,0.148,2.347,0.201l-39.11,184.003    c-0.861,4.052,1.725,8.036,5.777,8.896c4.056,0.862,8.035-1.725,8.897-5.777l39.899-187.711    c17.843-2.554,34.417-11.611,46.349-26.042c0.017-0.02,0.034-0.038,0.051-0.058c0.012-0.014,0.024-0.027,0.035-0.041    c0.029-0.035,0.05-0.073,0.078-0.109c0.148-0.186,0.287-0.379,0.417-0.579c0.051-0.079,0.1-0.159,0.148-0.239    c0.108-0.181,0.208-0.367,0.3-0.556c0.037-0.076,0.077-0.15,0.111-0.227c0.117-0.261,0.222-0.527,0.308-0.801    c0.012-0.038,0.019-0.077,0.031-0.116c0.057-0.192,0.113-0.385,0.154-0.583l6.027-28.352c0.861-4.051-1.725-8.035-5.777-8.896    L307.286,0.166c-4.053-0.863-8.035,1.725-8.897,5.777l-6.027,28.351c-0.042,0.199-0.071,0.398-0.097,0.598    c-0.005,0.039-0.014,0.076-0.018,0.115c-0.033,0.286-0.045,0.573-0.044,0.86c0,0.083,0.006,0.165,0.009,0.247    c0.007,0.213,0.023,0.426,0.049,0.637c0.011,0.091,0.023,0.182,0.037,0.273c0.038,0.24,0.088,0.478,0.149,0.713    c0.01,0.039,0.014,0.08,0.025,0.119c0.005,0.019,0.011,0.037,0.017,0.056c0.004,0.016,0.009,0.031,0.014,0.047    c5.03,18.05,16.482,33.091,31.754,42.685l-44.253,208.197l-7.213-1.533c-2.051-0.435-4.192,0.007-5.903,1.222    c-1.71,1.214-2.833,3.09-3.097,5.172l-0.786,6.203l-33.95-7.216c-4.05-0.863-8.035,1.725-8.896,5.777l-14.933,70.233    c-0.939,4.431-1.591,8.855-1.948,13.201c-0.128,0.067-0.253,0.139-0.38,0.207c-0.623,0.332-1.243,0.669-1.861,1.012    c-0.683,0.38-1.362,0.767-2.038,1.159c-0.609,0.354-1.216,0.711-1.819,1.076c-0.669,0.404-1.332,0.818-1.993,1.235    c-0.596,0.376-1.19,0.754-1.779,1.14c-0.654,0.429-1.3,0.867-1.945,1.308c-0.581,0.397-1.161,0.795-1.735,1.202    c-0.639,0.453-1.27,0.917-1.9,1.383c-0.564,0.417-1.128,0.833-1.685,1.26c-0.624,0.478-1.239,0.968-1.854,1.459    c-0.547,0.436-1.094,0.87-1.633,1.315c-0.609,0.503-1.207,1.019-1.806,1.533c-0.528,0.454-1.059,0.904-1.579,1.367    c-0.594,0.529-1.176,1.072-1.76,1.612c-0.507,0.47-1.018,0.935-1.517,1.413c-0.581,0.557-1.148,1.128-1.718,1.696    c-0.484,0.483-0.974,0.96-1.45,1.452c-0.57,0.587-1.124,1.19-1.681,1.79c-0.457,0.491-0.921,0.976-1.371,1.475    c-0.564,0.627-1.111,1.27-1.662,1.909c-0.424,0.492-0.856,0.975-1.273,1.474c-0.575,0.689-1.131,1.396-1.692,2.098    c-0.372,0.466-0.754,0.923-1.119,1.396c-0.668,0.864-1.314,1.746-1.959,2.629c-0.239,0.327-0.489,0.645-0.725,0.975    c-0.87,1.215-1.717,2.449-2.543,3.7c-0.269,0.408-0.522,0.827-0.786,1.239c-0.55,0.856-1.103,1.71-1.632,2.582    c-0.315,0.519-0.612,1.051-0.919,1.575c-0.458,0.78-0.92,1.556-1.361,2.348c-0.316,0.568-0.614,1.149-0.922,1.723    c-0.409,0.764-0.823,1.525-1.216,2.299c-0.305,0.601-0.592,1.213-0.887,1.82c-0.372,0.764-0.747,1.526-1.104,2.299    c-0.288,0.625-0.558,1.26-0.836,1.892c-0.271,0.616-0.554,1.223-0.815,1.845c-0.608-0.018-1.218-0.026-1.828-0.026    c-34.58,0-62.713,28.137-62.713,62.722c0,4.142,3.358,7.501,7.501,7.501h329.446c4.143,0,7.501-3.358,7.501-7.501    C428.22,476.047,405.072,452.899,376.62,452.899z M308.596,30.076l2.907-13.678l100.318,21.323L408.915,51.4L308.596,30.076z     M311.842,46.103l87.59,18.618c-9.245,7.155-20.37,11.357-31.974,12.12c-0.034,0.002-0.068-0.002-0.103,0.001    c-0.261,0.017-0.522,0.024-0.783,0.037c-0.589,0.03-1.179,0.053-1.771,0.065c-0.369,0.008-0.738,0.014-1.107,0.014    c-0.822,0.001-1.645-0.01-2.469-0.044c-0.269-0.011-0.538-0.03-0.807-0.045c-0.721-0.039-1.442-0.091-2.165-0.157    c-0.239-0.022-0.478-0.04-0.717-0.065c-0.899-0.093-1.799-0.209-2.699-0.345c-0.222-0.033-0.443-0.07-0.665-0.106    c-0.948-0.154-1.895-0.322-2.841-0.523c-0.952-0.202-1.892-0.435-2.826-0.682c-0.206-0.054-0.412-0.108-0.616-0.164    c-0.889-0.245-1.769-0.509-2.64-0.793c-0.208-0.068-0.414-0.142-0.621-0.212c-0.72-0.244-1.433-0.502-2.139-0.773    c-0.224-0.086-0.45-0.167-0.673-0.256c-0.787-0.312-1.563-0.645-2.332-0.989c-0.313-0.14-0.623-0.285-0.933-0.43    c-0.576-0.27-1.146-0.55-1.711-0.838c-0.207-0.105-0.416-0.205-0.621-0.313c-0.027-0.014-0.056-0.024-0.083-0.038    C325.837,64.769,317.378,56.403,311.842,46.103z M275.13,323.522l2.516-19.843l31.889,6.778l9.797,2.082    c0.001,0,0.003,0,0.004,0.001l6.57,1.396l-5.772,19.152c-3.437,11.402-15.253,18.391-26.902,15.919    C281.583,346.53,273.632,335.336,275.13,323.522z M99.362,496.998c3.438-21.686,21.539-38.546,43.788-40.092    c-2.207,8.177-3.56,16.583-4.002,25.11c-0.214,4.136,2.965,7.664,7.103,7.878c0.132,0.007,0.263,0.01,0.394,0.01    c3.964,0,7.277-3.108,7.484-7.113c0.542-10.475,2.626-20.745,6.195-30.527c15.101-41.462,54.907-69.319,99.053-69.319    c48.564,0,90.628,32.869,102.296,79.93c0.951,3.835,4.712,6.275,8.607,5.578c2.04-0.367,4.173-0.552,6.341-0.552    c17.609,0,32.355,12.502,35.825,29.097H99.362z" data-original="#000000" class="active-path" data-old_color="#000000" fill="#313131"/>
	</g>
</g></g> </svg>
