<?xml version="1.0"?>
<svg xmlns="http://www.w3.org/2000/svg" xmlns:xlink="http://www.w3.org/1999/xlink" version="1.1" id="Layer_1" x="0px" y="0px" viewBox="0 0 512 512" style="enable-background:new 0 0 512 512;" xml:space="preserve" width="30px" height="30px"><g><g>
	<g>
		<path d="M234.672,64C228.782,64,224,68.773,224,74.664V230.25l-110.016,110c-4.156,4.188-4.156,10.938,0,15.094    c4.172,4.172,10.922,4.172,15.094,0l113.125-113.133c2.094-2.086,3.125-4.812,3.125-7.547V74.672v-0.008    C245.328,68.773,240.562,64,234.672,64z" data-original="#000000" class="active-path" data-old_color="#000000" fill="#4397BC"/>
	</g>
</g><g>
	<g>
		<path d="M464.094,284.156c3.438-15.945,5.234-32.508,5.234-49.492C469.328,105.062,364.266,0,234.672,0    C105.062,0,0,105.062,0,234.664s105.062,234.68,234.672,234.68c16.969,0,33.531-1.812,49.5-5.25    C307.625,493.312,343.625,512,384,512c70.688,0,128-57.312,128-128C512,343.625,493.297,307.625,464.094,284.156z     M245.312,447.734c-0.141-5.766-4.844-10.391-10.641-10.391c-5.812,0-10.516,4.625-10.656,10.406    c-25.047-1.219-49.344-6.766-72.375-16.5c-4.875-2.062-9.641-4.297-14.312-6.688c2.797-5.062,1.047-11.469-4-14.375    c-5.031-2.906-11.438-1.25-14.438,3.703c-12.594-8.141-24.312-17.609-35.078-28.375c-10.75-10.75-20.219-22.484-28.375-35.078    c4.953-3,6.625-9.406,3.719-14.438s-9.312-6.797-14.391-4c-2.391-4.672-4.625-9.438-6.672-14.312    c-9.75-23.031-15.281-47.32-16.5-72.367C27.359,245.18,32,240.469,32,234.664c0-5.797-4.641-10.516-10.406-10.648    c1.219-25.047,6.75-49.352,16.5-72.383c2.047-4.859,4.281-9.625,6.672-14.297c5.078,2.797,11.469,1.039,14.391-4    c2.906-5.039,1.234-11.453-3.719-14.445c8.156-12.594,17.625-24.32,28.375-35.07c10.766-10.758,22.484-20.234,35.078-28.383    c3,4.953,9.406,6.625,14.438,3.711c5.047-2.906,6.797-9.305,4-14.375c4.672-2.398,9.438-4.625,14.312-6.688    c23.031-9.742,47.328-15.273,72.375-16.492C224.156,27.367,228.859,32,234.672,32c5.797,0,10.516-4.633,10.656-10.406    c25.031,1.219,49.344,6.75,72.375,16.492c4.859,2.062,9.625,4.289,14.297,6.688c-2.797,5.07-1.047,11.469,4,14.375    c5.031,2.914,11.453,1.242,14.453-3.711c12.578,8.148,24.312,17.625,35.062,28.383c10.75,10.75,20.234,22.484,28.375,35.07    c-4.953,2.992-6.625,9.406-3.703,14.445c2.906,5.039,9.297,6.797,14.375,4c2.391,4.672,4.625,9.438,6.688,14.297    c9.734,23.039,15.266,47.336,16.484,72.383c-5.766,0.133-10.406,4.852-10.406,10.648c0,5.805,4.641,10.516,10.406,10.656    c-0.422,8.781-1.391,17.477-2.875,26.055C426.766,261.57,406.031,256,384,256c-70.688,0-128,57.312-128,128    c0,22.031,5.562,42.766,15.375,60.875C262.797,446.344,254.109,447.312,245.312,447.734z M459.422,459.422    c-20.141,20.141-46.938,31.234-75.422,31.234s-55.281-11.094-75.422-31.234c-20.156-20.141-31.25-46.922-31.25-75.422    s11.094-55.281,31.25-75.422c20.141-20.141,46.938-31.234,75.422-31.234s55.281,11.094,75.422,31.234    c20.156,20.141,31.25,46.922,31.25,75.422S479.578,439.281,459.422,459.422z" data-original="#000000" class="active-path" data-old_color="#000000" fill="#4397BC"/>
	</g>
</g><g>
	<g>
		<path d="M339.219,414.422c5.297-7.953,16.172-14.188,24.125-19.61c11-7.562,19.219-14.188,19.219-29.172    c0-16.828-12.859-28.359-31.547-28.359c-20.688,0-33.812,13.375-33.812,34.469v1.969h18.031    c0.531-13.641,5.312-20.141,15.109-20.141c7.953,0,13.266,5.297,13.266,13.391c0,11.406-11.812,17.359-20.016,22.938    c-16.703,11.25-28.109,19.344-28.5,40.812h68v-16.297H339.219z" data-original="#000000" class="active-path" data-old_color="#000000" fill="#4397BC"/>
	</g>
</g><g>
	<g>
		<path d="M445.781,393.75v-56.078h-16.969l-40.297,54.359v17.344h39.766v21.344h17.5v-21.344h12.453V393.75H445.781z     M428.281,393.75H403.64l24.641-34.469V393.75z" data-original="#000000" class="active-path" data-old_color="#000000" fill="#4397BC"/>
	</g>
</g></g> </svg>
