<svg xmlns="http://www.w3.org/2000/svg" enable-background="new 0 0 50 50" viewBox="0 0 50 50"><path d="M28.29,33.2c5.5819-2.7451,9.8165-7.2752,12.47-12.65c0.75-1.5,1.77-3.4,2.61-4.36c-0.96,0.85-2.86,1.86-4.36,2.61
		c-5.3924,2.6623-9.7762,6.8235-12.5,12.17c2.1091-6.1588,2.131-13.0766-0.13-19.7401C25.78,9.46,25.1,7.18,25,5.76
		c-0.09,1.42-0.77,3.7-1.37,5.47c-2.1284,6.2725-2.3626,12.9487-0.13,19.7401c-2.713-5.3266-7.0872-9.4977-12.5-12.17
		c-1.51-0.75-3.4-1.76-4.36-2.61c0.84,0.96,1.86,2.86,2.61,4.36c2.6696,5.4305,6.8813,9.8607,12.44,12.64
		c-5.3654-1.683-10.7709-1.5021-15.9,0.23c-1.45,0.5-3.33,1.06-4.5,1.14c1.17,0.07,3.05,0.64,4.5,1.13
		c5.5129,1.8616,11.2281,1.9228,16.93-0.13c-2.6638,1.4985-4.6709,3.6398-6.03,6.38c-0.39,0.8-0.93,1.8-1.37,2.3
		c0.5-0.44,1.5-0.98,2.3-1.37c4.1866-2.0683,6.8875-6.0458,7.37-8.3C25,34.56,25,34.56,25,34.56s0,0,0.01,0.01
		c0.8087,2.8323,3.3889,6.3283,7.38,8.3c0.8,0.39,1.79,0.93,2.3,1.37c-0.44-0.5-0.98-1.5-1.37-2.3c-1.24-2.5-3.13-4.65-5.53-6.09
		c-0.17-0.1-0.34-0.2-0.5-0.29c5.7647,2.0755,11.4852,1.9693,16.92,0.13c1.46-0.49,3.34-1.06,4.5-1.13
		c-1.16-0.08-3.04-0.64-4.5-1.14C38.9375,31.6356,33.6446,31.552,28.29,33.2z"/></svg>