<svg height="480pt" viewBox="0 0 480.05928 480" width="480pt" xmlns="http://www.w3.org/2000/svg"><path d="m376.03125 432.023438h-304v-56c0-44.183594 35.816406-80 80-80h224zm0 0" fill="#0b7"/><path d="m208.03125 216.023438h64v80h-64zm0 0" fill="#bfa480"/><path d="m301.933594 296.023438h-123.804688c7.265625 28.25 32.734375 47.992187 61.902344 47.992187s54.636719-19.742187 61.902344-47.992187zm0 0" fill="#acabb1"/><path d="m456.03125 256.023438-1.441406 32h-125.117188l-1.441406-32zm0 0" fill="#57a4ff"/><path d="m454.589844 288.023438-6.558594 144h-112l-6.558594-144zm0 0" fill="#bdfdff"/><path d="m160.03125 112.023438v48h-16c-8.824219-.027344-15.972656-7.171876-16-16v-16c.027344-8.824219 7.175781-15.972657 16-16zm0 0" fill="#dfbf95"/><path d="m352.03125 128.023438v16c-.027344 8.828124-7.175781 15.972656-16 16h-16v-48h16c8.824219.027343 15.972656 7.175781 16 16zm0 0" fill="#dfbf95"/><path d="m328.03125 72.023438v16h-184v-16c.015625-26.722657 16.628906-50.621094 41.671875-59.945313 25.042969-9.320313 53.246094-2.101563 70.726563 18.105469 14.875-8.355469 33.0625-8.203125 47.792968.402344 14.726563 8.609374 23.789063 24.378906 23.808594 41.4375zm0 0" fill="#787680"/><path d="m320.03125 88.023438v96c0 44.183593-35.816406 80-80 80s-80-35.816407-80-80v-96zm0 0" fill="#ffdaaa"/><path d="m280.03125 400.023438c.011719 8.492187-3.355469 16.636718-9.359375 22.640624-6.003906 6.003907-14.148437 9.371094-22.640625 9.359376h-192c-17.671875 0-32-14.324219-32-32zm0 0" fill="#e0e0e2"/><path d="m472.03125 452.023438c.015625 5.308593-2.085938 10.40625-5.839844 14.160156-3.753906 3.757812-8.851562 5.859375-14.160156 5.839844h-424c-11.046875 0-20-8.953126-20-20 0-11.042969 8.953125-20 20-20h424c11.046875 0 20 8.957031 20 20zm0 0" fill="#787680"/><path d="m256.03125 320.023438v16c0 2-.078125 4-.238281 6h-.082031c-.011719.671874-.066407 1.339843-.160157 2-4.03125 32.007812-31.257812 56.011718-63.519531 56h-80c-35.347656 0-64-28.652344-64-64v-16zm0 0" fill="#d9ccbc"/><g fill="#231f20"><path d="m456.382812 424.464844 7.648438-168.082032c.097656-2.183593-.699219-4.308593-2.210938-5.890624-1.511718-1.578126-3.601562-2.46875-5.789062-2.46875h-32v-36.6875l29.65625-29.65625-11.3125-11.3125-32 32c-1.5 1.5-2.34375 3.535156-2.34375 5.65625v40h-80c-2.183594 0-4.277344.890624-5.789062 2.46875-1.511719 1.582031-2.308594 3.707031-2.210938 5.890624l1.449219 31.640626h-41.449219v-25.710938c29.425781-15.015625 47.964844-45.25 48-78.289062v-16h8c13.253906 0 24-10.746094 24-24v-16c0-13.253907-10.746094-24-24-24h-8v-8h8v-16h-200v16h16v8h-8c-13.253906 0-24 10.746093-24 24v16c0 13.253906 10.746094 24 24 24h8v16c.035156 33.039062 18.574219 63.273437 48 78.289062v25.710938h-48c-22.414062-.023438-43.976562 8.570312-60.230469 24h-43.769531c-4.417969 0-8 3.582031-8 8v16c.003906 21.769531 9.878906 42.363281 26.847656 56h-42.847656c-4.417969 0-8 3.582031-8 8 .035156 8.839843 3.023438 17.410156 8.496094 24.351562-14.671875 1.800781-25.402344 14.722656-24.4726565 29.476562.9296875 14.753907 13.1953125 26.226563 27.9765625 26.171876h424c14.617188.042968 26.800781-11.1875 27.941406-25.761719 1.144532-14.574219-9.140625-27.566407-23.589844-29.796875zm-118.527343-128.441406h70.175781v88h16v-88h22.175781l-5.824219 128h-96.703124zm109.808593-32-.730468 16h-22.902344v-16zm-39.632812 0v16h-70.902344l-.730468-16zm-80.375 160h-47.832031c5.292969-6.882813 8.179687-15.316407 8.207031-24 0-4.417969-3.582031-8-8-8h-42.847656c13.65625-11.015626 22.8125-26.644532 25.75-43.941407 20.925781-7.019531 37.460937-23.261719 44.851562-44.058593h14.398438zm-133.464844-112c-1.792968-2.53125-3.367187-5.207032-4.710937-8h101.039062c-5.542969 11.574218-14.894531 20.894531-26.488281 26.402343v-10.402343c0-4.417969-3.582031-8-8-8zm141.839844-192c4.417969 0 8 3.582031 8 8v16c0 4.417968-3.582031 8-8 8h-8v-32zm-192 32c-4.417969 0-8-3.582032-8-8v-16c0-4.417969 3.582031-8 8-8h8v32zm24 32v-88h144v88c0 39.765624-32.234375 72-72 72s-72-32.234376-72-72zm48 84.59375c15.675781 4.542968 32.324219 4.542968 48 0v19.40625h-48zm-64 35.40625h20.160156c.957032 2.730468 2.074219 5.402343 3.351563 8h-56.40625c10.164062-5.257813 21.445312-8.003907 32.894531-8zm-96 32v-8h192v8h-32v16h29.601562c-7.089843 23.695312-28.867187 39.949218-53.601562 40h-80c-30.914062-.035157-55.964844-25.085938-56-56zm214.632812 72c-3.402343 9.582031-12.464843 15.988281-22.632812 16h-192c-10.167969-.011719-19.230469-6.417969-22.632812-16zm181.367188 56h-424c-6.628906 0-12-5.371094-12-12 0-6.625 5.371094-12 12-12h424c6.628906 0 12 5.375 12 12 0 6.628906-5.371094 12-12 12zm0 0"/><path d="m288.03125 200.023438c0-13.253907-10.746094-24-24-24s-24 10.746093-24 24h-32v16h80zm-32 0c0-4.417969 3.582031-8 8-8s8 3.582031 8 8zm0 0"/><path d="m216.03125 152.023438v-16c0-4.417969-3.582031-8-8-8s-8 3.582031-8 8v16c0 4.417968 3.582031 8 8 8s8-3.582032 8-8zm0 0"/><path d="m272.03125 160.023438c4.417969 0 8-3.582032 8-8v-16c0-4.417969-3.582031-8-8-8s-8 3.582031-8 8v16c0 4.417968 3.582031 8 8 8zm0 0"/><path d="m208.03125 16.023438c16.257812-.027344 31.722656 7.046874 42.328125 19.367187 2.484375 2.898437 6.671875 3.636719 10 1.761719 12.394531-6.957032 27.550781-6.824219 39.824219.347656 12.269531 7.171875 19.824218 20.308594 19.847656 34.523438h16c-.023438-18.765626-9.4375-36.277344-25.074219-46.652344-15.640625-10.375-35.433593-12.238282-52.734375-4.960938-20.746094-20.171875-51.550781-25.964844-78.207031-14.707031-26.65625 11.261719-43.980469 37.382813-43.984375 66.320313h16c.035156-30.914063 25.085938-55.964844 56-56zm0 0"/><path d="m184.03125 336.023438h16v16h-16zm0 0"/></g></svg>