<svg id="Capa_1" enable-background="new 0 0 512 512" height="512" viewBox="0 0 512 512" width="512" xmlns="http://www.w3.org/2000/svg"><g><path d="m286 0h-120-121c-24.853 0-45 20.147-45 45v422c0 24.853 20.147 45 45 45h71.201l34.799-30h15 165v-437c0-24.853-20.147-45-45-45z" fill="#474f54"/><path d="m331 45c0-24.853-20.147-45-45-45h-120v482h165z" fill="#32393f"/><path d="m286 30h-120-121c-8.276 0-15 6.724-15 15v422c0 8.276 6.724 15 15 15h121 120c8.276 0 15-6.724 15-15v-422c0-8.276-6.724-15-15-15z" fill="#80d4ff"/><path d="m301 467v-422c0-8.276-6.724-15-15-15h-120v452h120c8.276 0 15-6.724 15-15z" fill="#66b3ff"/><g><path d="m420.238 158.027-10.605 10.606-10.606 10.605 91.762 91.762 10.606-10.605 10.605-10.606z" fill="#474f54"/><path d="m453.317 144.326h14.998v129.771h-14.998z" fill="#32393f" transform="matrix(.707 -.707 .707 .707 -12.965 387.123)"/><path d="m346 0c-28.945 0-55.195 11.777-74.209 30.791s-30.791 45.264-30.791 74.209c0 57.891 47.109 105 105 105 28.945 0 55.195-11.777 74.209-30.791s30.791-45.264 30.791-74.209c0-57.891-47.109-105-105-105z" fill="#474f54"/><path d="m346 0c-28.945 0-55.195 11.777-74.209 30.791l148.418 148.418c19.014-19.014 30.791-45.264 30.791-74.209 0-57.891-47.109-105-105-105z" fill="#32393f"/><path d="m346 30c-20.676 0-39.426 8.412-53.007 21.993s-21.993 32.331-21.993 53.007c0 41.353 33.647 75 75 75 20.676 0 39.426-8.412 53.007-21.993s21.993-32.331 21.993-53.007c0-41.353-33.647-75-75-75z" fill="#fed843"/><path d="m346 30c-20.676 0-39.426 8.412-53.007 21.993l106.014 106.014c13.581-13.581 21.993-32.331 21.993-53.007 0-41.353-33.647-75-75-75z" fill="#fabe2c"/><path d="m301.002 120.002h29.997v29.997h-29.997z" fill="#ff641a" transform="matrix(.707 -.707 .707 .707 -2.905 262.986)"/><path d="m331.002 60.002h29.997v29.997h-29.997z" fill="#f03800" transform="matrix(.707 -.707 .707 .707 48.308 266.626)"/><path d="m376 113.789-10.605 10.606-10.606 10.605 21.211 21.211 10.605-10.606 10.606-10.605z" fill="#ff641a"/><path d="m373.804 114.699h14.998v29.997h-14.998z" fill="#f03800" transform="matrix(.707 -.707 .707 .707 19.971 307.609)"/></g><path d="m166 60h-30v30h30 30v-30z" fill="#edf5ff"/><path d="m166 60h30v30h-30z" fill="#d5e8fe"/><path d="m181 452h-75v-126.375l15-25.625h60z" fill="#ffa7b3"/><path d="m376 300v61h-30v-91h-45v91h-30v-121h-45v121h-30v-211h-30-15v256h-30v-106h-45v106c0 51 19.799 81.4 40.201 106h49.799 240v-12.9c7.5-26.1 15-55.3 15-123.1v-76z" fill="#fcc"/><path d="m406 499.1c7.5-26.1 15-55.3 15-123.1v-76h-45v61h-30v-91h-45v91h-30v-121h-45v121h-30v-211h-30v362h240z" fill="#ffa7b3"/></g></svg>