<svg id="Capa_1" enable-background="new 0 0 512 512" height="512" viewBox="0 0 512 512" width="512" xmlns="http://www.w3.org/2000/svg"><g><path d="m467 512h-300c-24.813 0-45-20.187-45-45v-360c0-24.813 20.187-45 45-45l150 40 150-40c24.813 0 45 20.187 45 45v360c0 24.813-20.187 45-45 45z" fill="#ffe278"/><path d="m467 62-150 40v410h150c24.813 0 45-20.187 45-45v-360c0-24.813-20.187-45-45-45z" fill="#ffc178"/><path d="m382 467h-200c-8.284 0-15-6.716-15-15v-390h300v319.999c0 3.978-1.58 7.794-4.394 10.607l-70 70c-2.813 2.814-6.628 4.394-10.606 4.394z" fill="#f1f4f6"/><path d="m317 62v405h65c3.978 0 7.794-1.58 10.607-4.394l70-70c2.813-2.813 4.394-6.629 4.394-10.607v-319.999z" fill="#e2e2ea"/><path d="m317 397h-60c-8.284 0-15-6.716-15-15s6.716-15 15-15h60c8.284 0 15 6.716 15 15s-6.716 15-15 15z" fill="#0a617d"/><path d="m392 377c-8.284 0-15 6.716-15 15v75h5c3.978 0 7.793-1.581 10.606-4.394l70-70c2.813-2.813 4.394-6.628 4.394-10.606v-5z" fill="#e2e2ea"/><path d="m387 117h-140c-8.284 0-15-6.716-15-15v-35c0-6.883 4.685-12.883 11.362-14.552l28.638-7.159v-30.289c0-8.284 6.716-15 15-15h60c8.284 0 15 6.716 15 15v30.289l28.638 7.159c6.677 1.669 11.362 7.669 11.362 14.552v35c0 8.284-6.716 15-15 15z" fill="#0a617d"/><path d="m377 327h-120c-8.284 0-15-6.716-15-15v-120c0-8.284 6.716-15 15-15h120c8.284 0 15 6.716 15 15v120c0 8.284-6.716 15-15 15z" fill="#f2ba23"/><path d="m377 177h-60v150h60c8.284 0 15-6.716 15-15v-120c0-8.284-6.716-15-15-15z" fill="#d89d1e"/><path d="m302 177v45c0 8.284 6.716 15 15 15s15-6.716 15-15v-45z" fill="#0a617d"/><path d="m317 237c8.284 0 15-6.716 15-15v-45h-15z" fill="#08475e"/><path d="m317 367v30c8.284 0 15-6.716 15-15s-6.716-15-15-15z" fill="#08475e"/><path d="m392 377c-8.284 0-15 6.716-15 15v75h5c3.978 0 7.793-1.581 10.606-4.394l70-70c2.813-2.813 4.394-6.628 4.394-10.606v-5z" fill="#c6d0da"/><path d="m377 327h-120c-8.284 0-15-6.716-15-15v-120c0-8.284 6.716-15 15-15h120c8.284 0 15 6.716 15 15v120c0 8.284-6.716 15-15 15z" fill="#f2ba23"/><path d="m377 177h-60v150h60c8.284 0 15-6.716 15-15v-120c0-8.284-6.716-15-15-15z" fill="#d89d1e"/><path d="m302 177v45c0 8.284 6.716 15 15 15s15-6.716 15-15v-45z" fill="#c48119"/><path d="m317 237c8.284 0 15-6.716 15-15v-45h-15z" fill="#936113"/><path d="m390.638 52.448-28.638-7.159v-30.289c0-8.284-6.716-15-15-15h-30v117h70c8.284 0 15-6.716 15-15v-35c0-6.883-4.685-12.883-11.362-14.552z" fill="#08475e"/><g><g><path d="m35 127c-8.284 0-15-6.716-15-15v-30c0-8.284 6.716-15 15-15s15 6.716 15 15v30c0 8.284-6.716 15-15 15z" fill="#f1f4f6"/></g><path d="m50 112v-30c0-8.284-6.716-15-15-15v60c8.284 0 15-6.716 15-15z" fill="#e2e2ea"/><g><path d="m35 492c-6.697 0-12.583-4.439-14.423-10.879l-20-70c-1.293-4.525-.387-9.396 2.448-13.153 2.834-3.758 7.268-5.968 11.975-5.968h40c4.707 0 9.141 2.209 11.975 5.967 2.834 3.757 3.741 8.628 2.448 13.153l-20 70c-1.84 6.441-7.726 10.88-14.423 10.88z" fill="#f1f4f6"/></g><path d="m55 392h-20v100c6.697 0 12.583-4.439 14.423-10.879l20-70c1.293-4.525.387-9.396-2.448-13.153-2.834-3.758-7.268-5.968-11.975-5.968z" fill="#e2e2ea"/><g><path d="m0 122v65c0 8.284 6.716 15 15 15h40c8.284 0 15-6.716 15-15v-65c0-8.284-6.716-15-15-15h-40c-8.284 0-15 6.716-15 15z" fill="#0a617d"/></g><g><path d="m55 107h-20v95h20c8.284 0 15-6.716 15-15v-65c0-8.284-6.716-15-15-15z" fill="#08475e"/></g><path d="m0 187v220c0 .128.016.252.019.38h69.962c.003-.128.019-.252.019-.38v-220z" fill="#a4e6f8"/><g><path d="m35 187v220.38h34.981c.003-.128.019-.252.019-.38v-220z" fill="#6ed2f0"/></g><path d="m20 481.121v15.879c0 8.284 6.716 15 15 15s15-6.716 15-15v-15.879z" fill="#0a617d"/><path d="m20 479.101v15.412c0 9.658 6.716 17.487 15 17.487s15-7.829 15-17.487v-15.412z" fill="#0a617d"/><g><path d="m50 497v-17.899h-15v32.899c8.284 0 15-6.716 15-15z" fill="#08475e"/></g></g></g></svg>