<?xml version="1.0" encoding="iso-8859-1"?>
<!-- Generator: Adobe Illustrator 19.0.0, SVG Export Plug-In . SVG Version: 6.00 Build 0)  -->
<svg version="1.1" id="Capa_1" xmlns="http://www.w3.org/2000/svg" xmlns:xlink="http://www.w3.org/1999/xlink" x="0px" y="0px" viewBox="0 0 490.667 490.667" style="enable-background:new 0 0 490.667 490.667;" xml:space="preserve">
    <path style="fill:#ffcc34;" d="M245.333,490.667C109.839,490.667,0,380.827,0,245.333S109.839,0,245.333,0
	s245.333,109.839,245.333,245.333c0,5.891-4.776,10.667-10.667,10.667c-5.891,0-10.667-4.776-10.667-10.667
	c0-123.712-100.288-224-224-224s-224,100.288-224,224s100.288,224,224,224c74.347,0,146.581-37.824,171.733-89.963
	c4.684-7.028,5.23-16.031,1.429-23.573c-11.988-11-28.5-15.627-44.459-12.459c-5.891,0.383-10.977-4.082-11.36-9.973
	c-0.383-5.891,4.082-10.977,9.973-11.36c23.536-4.251,47.593,4.01,63.552,21.824c8.471,13.732,8.471,31.068,0,44.8
	C407.765,447.765,327.467,490.667,245.333,490.667z" />
    <path style="fill:#52a9e1;" d="M359.104,284.587c-16.073,0.027-32.047-2.516-47.317-7.531c-8.429-3.024-17.841-1.099-24.405,4.992
	l-28.885,21.803c-30.864-15.766-55.969-40.864-71.744-71.723l20.843-27.733c6.668-6.637,9.05-16.453,6.165-25.408
	c-5.04-15.302-7.596-31.313-7.573-47.424c-0.012-13.728-11.125-24.861-24.853-24.896h-49.771
	c-13.745,0.012-24.884,11.151-24.896,24.896C106.831,270.912,219.755,383.835,359.104,384c13.745-0.012,24.884-11.151,24.896-24.896
	v-49.621C383.988,295.738,372.849,284.598,359.104,284.587z" />
    <g>
    </g>
    <g>
    </g>
    <g>
    </g>
    <g>
    </g>
    <g>
    </g>
    <g>
    </g>
    <g>
    </g>
    <g>
    </g>
    <g>
    </g>
    <g>
    </g>
    <g>
    </g>
    <g>
    </g>
    <g>
    </g>
    <g>
    </g>
    <g>
    </g>
</svg>