<svg height="386pt" viewBox="-24 0 386 386.39104" width="386pt" xmlns="http://www.w3.org/2000/svg"><path d="m107.308594 264.121094c1.625 0 3.261718-.582032 4.566406-1.757813l37.078125-33.429687c3.46875 1.960937 7.414063 3.171875 11.671875 3.171875 13.171875 0 23.890625-10.71875 23.890625-23.890625 0-13.175782-10.71875-23.894532-23.890625-23.894532-13.175781 0-23.894531 10.71875-23.894531 23.894532 0 3.9375 1.050781 7.601562 2.746093 10.878906l-36.742187 33.128906c-2.800781 2.523438-3.023437 6.839844-.5 9.640625 1.347656 1.496094 3.207031 2.257813 5.074219 2.257813zm53.316406-66.148438c5.644531 0 10.238281 4.59375 10.238281 10.242188 0 5.644531-4.59375 10.238281-10.238281 10.238281-5.648438 0-10.242188-4.59375-10.242188-10.238281 0-5.648438 4.59375-10.242188 10.242188-10.242188zm0 0"/><path d="m56.921875 157.121094c1.082031.628906 2.269531.929687 3.433594.929687 2.351562 0 4.636719-1.214843 5.90625-3.386719 3.492187-5.992187 7.570312-11.691406 12.113281-16.953124 2.464844-2.847657 2.152344-7.160157-.699219-9.625-2.859375-2.472657-7.164062-2.160157-9.628906.699218-5.09375 5.890625-9.664063 12.28125-13.578125 18.996094-1.902344 3.257812-.800781 7.4375 2.453125 9.339844zm0 0"/><path d="m316.449219 271.679688c7.542969-19.121094 11.429687-39.304688 11.429687-60.054688 0-48.785156-21.460937-92.632812-55.410156-122.671875l8.863281-8.859375 4.828125 4.828125c1.332032 1.332031 3.078125 2 4.824219 2s3.496094-.667969 4.828125-2c2.664062-2.667969 2.664062-6.988281 0-9.65625l-9.644531-9.644531c-.003907-.003906-.003907-.007813-.007813-.011719-.003906 0-.007812 0-.011718-.003906l-9.644532-9.648438c-2.667968-2.664062-6.988281-2.664062-9.652344 0-2.667968 2.667969-2.667968 6.988281 0 9.652344l4.828126 4.828125-9.832032 9.832031c-25.609375-19.117187-56.976562-30.90625-90.984375-32.308593v-13.828126h17.066407c9.410156 0 17.066406-7.65625 17.066406-17.066406s-7.65625-17.066406-17.066406-17.066406h-47.785157c-9.410156 0-17.066406 7.65625-17.066406 17.066406s7.65625 17.066406 17.066406 17.066406h17.066407v13.828126c-37.453126 1.542968-71.691407 15.714843-98.578126 38.367187l-15.890624-15.890625 4.828124-4.828125c2.667969-2.664063 2.667969-6.988281 0-9.652344-2.664062-2.667969-6.988281-2.667969-9.652343 0l-9.644531 9.644531c-.003907.003907-.007813.003907-.011719.007813-.003907.003906-.003907.007813-.007813.011719l-9.648437 9.644531c-2.664063 2.664063-2.664063 6.988281 0 9.652344 1.335937 1.332031 3.082031 2 4.828125 2s3.492187-.667969 4.828125-2l4.828125-4.828125 15.449218 15.449218c-29.839843 29.691407-48.34375 70.765626-48.34375 116.085938 0 90.339844 73.5 163.839844 163.839844 163.839844 20.75 0 40.933594-3.890625 60.050782-11.429688 12.019531 13.671875 29.582031 22.355469 49.175781 22.355469 36.140625 0 65.539062-29.398437 65.539062-65.539063.003907-19.589843-8.679687-37.152343-22.351562-49.171874zm-179.71875-254.613282c0-1.882812 1.527343-3.414062 3.414062-3.414062h47.785157c1.886718 0 3.414062 1.53125 3.414062 3.414062 0 1.882813-1.527344 3.414063-3.414062 3.414063h-47.785157c-1.886719 0-3.414062-1.53125-3.414062-3.414063zm27.308593 344.746094c-82.8125 0-150.1875-67.375-150.1875-150.1875s67.375-150.183594 150.1875-150.183594 150.183594 67.371094 150.183594 150.183594c0 17.882812-3.242187 35.273438-9.347656 51.851562-6.746094-3.730468-14.230469-6.246093-22.152344-7.398437 3.5625-9.542969 6.042969-19.496094 7.238282-29.710937 8.128906-69.433594-41.75-132.535157-111.179688-140.664063-28.277344-3.296875-56.070312 2.722656-80.363281 17.4375-3.226563 1.953125-4.253907 6.152344-2.300781 9.375 1.953124 3.226563 6.140624 4.265625 9.375 2.304687 21.664062-13.132812 46.4375-18.511718 71.699218-15.554687 61.953125 7.253906 106.460938 63.558594 99.210938 125.515625-1.214844 10.335938-3.808594 20.402344-7.722656 29.921875-.113282.277344-.089844.566406-.164063.851563-32.277344 2.332031-58.105469 28.089843-60.539063 60.335937-17.910156 7.570313-37.65625 10.371094-57.089843 8.097656-61.953125-7.25-106.460938-63.558593-99.210938-125.515625.441407-3.742187-2.242187-7.136718-5.988281-7.574218-3.722656-.480469-7.132812 2.238281-7.574219 5.988281-8.125 69.433593 41.75 132.535156 111.183594 140.664062 4.917969.574219 9.847656.859375 14.765625.859375 15.183594 0 30.21875-2.867187 44.410156-8.1875 1.144532 7.957032 3.667969 15.46875 7.410156 22.238282-16.574218 6.109374-33.964843 9.351562-51.84375 9.351562zm109.226563 10.925781c-28.613281 0-51.886719-23.277343-51.886719-51.886719 0-28.605468 23.277344-51.882812 51.886719-51.882812 28.605469 0 51.882813 23.277344 51.882813 51.882812 0 28.609376-23.277344 51.886719-51.882813 51.886719zm0 0"/><path d="m283.503906 300.375h-14.242187l2.003906-2c2.664063-2.667969 2.664063-6.988281 0-9.65625-2.667969-2.664062-6.988281-2.664062-9.65625 0l-13.652344 13.65625c-.59375.589844-1.011719 1.289062-1.34375 2.023438-.101562.222656-.167969.445312-.242187.675781-.179688.550781-.289063 1.105469-.328125 1.683593-.015625.238282-.042969.464844-.035157.703126.027344.722656.152344 1.445312.417969 2.144531.023438.0625.023438.125.046875.183593.003906.007813 0 .015626.003906.023438.320313.765625.796876 1.417969 1.339844 2.003906.0625.0625.078125.148438.140625.210938l13.652344 13.652344c1.335937 1.332031 3.082031 2 4.828125 2s3.492188-.667969 4.828125-2c2.664063-2.664063 2.664063-6.988282 0-9.652344l-2.003906-2h14.242187c5.648438 0 10.238282 4.59375 10.238282 10.238281 0 5.648437-4.589844 10.242187-10.238282 10.242187h-37.546875c-3.769531 0-6.828125 3.054688-6.828125 6.824219s3.058594 6.828125 6.828125 6.828125h37.546875c13.171875 0 23.894532-10.71875 23.894532-23.894531 0-13.171875-10.722657-23.890625-23.894532-23.890625zm0 0"/></svg>