<svg id="icons" enable-background="new 0 0 64 64" height="512" viewBox="0 0 64 64" width="512" xmlns="http://www.w3.org/2000/svg"><path d="m63 43.999v-20.998c0-4.962-4.037-9-9-9h-43.999c-4.963 0-9 4.038-9 9v20.998h-.001c-.553 0-1 .447-1 1v4c0 .553.447 1 1 1h62c.553 0 1-.447 1-1v-4c0-.553-.447-1-1-1zm-52.999-27.998h43.999c3.52 0 6.433 2.613 6.92 6h-21.918v-2.002c0-.552-.447-1-1-1h-12c-.553 0-1 .448-1 1v2.002h-21.921c.487-3.387 3.401-6 6.92-6zm17.001 6v-1.002h10v1.002zm-24.001 2h57.999v19.998h-5.355c2.044-1.651 3.355-4.174 3.355-7 0-4.962-4.037-9-9-9h-35.999c-4.963 0-9 4.038-9 9 0 2.826 1.312 5.349 3.355 7h-5.355zm11 19.998c-3.859 0-7-3.141-7-7s3.141-7 7-7h5.381l-1.276 2.553c-.247.494-.047 1.095.447 1.342.144.071.296.105.446.105.367 0 .72-.202.896-.553l1.724-3.447h5.764l-1.276 2.553c-.247.494-.047 1.095.447 1.342.144.071.296.105.446.105.367 0 .72-.202.896-.553l1.724-3.447h5.764l-1.276 2.553c-.247.494-.047 1.095.447 1.342.144.071.296.105.446.105.367 0 .72-.202.896-.553l1.724-3.447h5.764l-1.276 2.553c-.247.494-.047 1.095.447 1.342.144.071.296.105.446.105.367 0 .72-.202.896-.553l1.724-3.447h4.378c3.859 0 7 3.141 7 7s-3.141 7-7 7zm47.999 4h-60v-2h60z"/></svg>