<svg height="512pt" viewBox="-58 0 512 512.00207" width="512pt" xmlns="http://www.w3.org/2000/svg"><path d="m186.261719 114.625c8.960937-35.230469-.066407-61.566406-7.664063-75.886719-3.832031-7.226562-1.21875-16.1875 5.835938-20.328125l14.820312-8.695312c8.996094-5.277344 20.550782-.238282 22.746094 9.960937 4.878906 22.667969 9.703125 60.773438-2.066406 94.949219zm0 0" fill="#8bcc3f"/><path d="m199.253906 9.714844c7.363282 20.175781 15.144532 51.453125 8.007813 81.699218-1.257813 5.328126-5.984375 9.117188-11.457031 9.117188h-6.816407c-.601562 4.523438-1.484375 9.21875-2.722656 14.09375h33.667969c11.773437-34.175781 6.949218-72.28125 2.066406-94.949219-2.195312-10.199219-13.75-15.238281-22.746094-9.960937zm0 0" fill="#659922"/><path d="m258.046875 145.164062h36.117187c57.253907 0 101.871094 49.652344 95.769532 106.582032l-17.070313 159.347656c-3.839843 35.8125-34.0625 62.96875-70.078125 62.96875h-44.738281zm0 0" fill="#fb4239"/><path d="m341.722656 157.703125c14.730469 18.921875 22.515625 43.390625 19.730469 69.375l-17.070313 159.347656c-3.839843 35.8125-34.058593 62.96875-70.078124 62.96875h-16.257813v24.667969h44.738281c36.015625 0 66.238282-27.15625 70.078125-62.96875l17.070313-159.347656c4.25-39.65625-16.113282-75.773438-48.210938-94.042969zm0 0" fill="#e31f1d"/><path d="m140.007812 145.164062h-36.117187c-57.253906 0-101.871094 49.652344-95.769531 106.582032l17.074218 159.347656c3.835938 35.8125 34.058594 62.96875 70.074219 62.96875h44.738281zm0 0" fill="#fb4239"/><path d="m117.6875 145.164062h-13.796875c-11.113281 0-21.746094 1.878907-31.628906 5.3125-12.527344 22.019532-18.625 47.472657-17.082031 73.078126l11.324218 187.941406c.285156 4.722656.816406 9.152344 1.585938 13.363281 1.566406 8.5625-6.257813 15.976563-14.625 13.570313-9.359375-2.6875-17.945313-7.265626-25.296875-13.316407 9.167969 28.640625 35.960937 48.949219 67.101562 48.949219h44.734375v-328.898438zm0 0" fill="#e31f1d"/><path d="m200.230469 504.605469h-2.40625c-53.433594 0-97.625-41.609375-100.835938-94.945313l-11.324219-187.941406c-3.496093-58.074219 42.65625-107.09375 100.835938-107.09375h25.050781c58.183594 0 104.335938 49.019531 100.835938 107.09375l-11.320313 187.941406c-3.210937 53.335938-47.402344 94.945313-100.835937 94.945313zm0 0" fill="#fb4239"/><path d="m268.191406 131.984375c11.550782 17.542969 17.765625 38.851563 16.398438 61.542969l-11.324219 187.941406c-3.210937 53.335938-47.402344 94.945312-100.835937 94.945312h-2.40625c-20.957032 0-40.476563-6.421874-56.671876-17.421874 18.105469 27.558593 49.28125 45.613281 84.472657 45.613281h2.40625c53.433593 0 97.625-41.609375 100.835937-94.945313l11.324219-187.941406c2.230469-37.0625-15.761719-70.4375-44.199219-89.734375zm0 0" fill="#e31f1d"/><path d="m371.441406 172.035156c-19.675781-21.894531-47.839844-34.449218-77.273437-34.449218h-7.121094c-15.953125-15.476563-35.765625-25.457032-57.347656-29.042969 8.726562-32.460938 4.835937-66.652344-.292969-90.460938-1.5625-7.253906-6.355469-13.125-13.15625-16.113281-6.816406-3-14.410156-2.554688-20.832031 1.210938l-14.820313 8.695312c-10.613281 6.230469-14.433594 19.585938-8.691406 30.410156 2.601562 4.910156 4.773438 10.1875 6.445312 15.679688 1.21875 4 5.449219 6.257812 9.453126 5.039062 4.003906-1.21875 6.261718-5.449218 5.042968-9.453125-1.957031-6.417969-4.496094-12.597656-7.554687-18.363281-1.925781-3.636719-.621094-8.132812 2.972656-10.242188l14.820313-8.695312c2.179687-1.277344 4.753906-1.429688 7.070312-.410156 2.292969 1.007812 3.910156 2.988281 4.4375 5.433594 4.023438 18.675781 9.078125 53.839843-.226562 85.8125-.9375-.023438-1.875-.035157-2.8125-.035157h-15.910157c.910157-5.113281 1.503907-10.207031 1.765625-15.226562.21875-4.179688-2.992187-7.742188-7.171875-7.960938-4.183593-.222656-7.742187 2.992188-7.960937 7.171875-.277344 5.316406-.980469 10.746094-2.089844 16.199219-26.144531 1.472656-50.351562 12.085937-69.179688 30.351563h-7.121093c-29.433594 0-57.597657 12.554687-77.273438 34.453124-19.675781 21.894532-29.160156 51.242188-26.023437 80.515626l8.640625 80.625c.414062 3.886718 3.699219 6.769531 7.523437 6.769531.269532 0 .542969-.011719.816406-.042969 4.160157-.445312 7.171876-4.179688 6.722657-8.339844l-8.636719-80.625c-2.679688-25.003906 5.421875-50.074218 22.226562-68.777344 15.445313-17.183593 37.015626-27.628906 59.917969-29.207031-14.269531 20.058594-21.210937 44.140625-19.699219 69.21875l11.324219 187.941407c1.265625 20.996093 8.476563 40.316406 19.929688 56.375h-14.085938c-32.21875 0-59.105469-24.164063-62.542969-56.207032l-4.628906-43.199218c-.445312-4.164063-4.183594-7.179688-8.339844-6.726563-4.160156.445313-7.171874 4.179687-6.722656 8.339844l4.628906 43.203125c4.261719 39.757812 37.625 69.742187 77.609376 69.742187h27.136718c41.910156 40.476563 111.328125 40.476563 153.234375 0h27.140625c39.980469 0 73.34375-29.984375 77.609375-69.746093l4.628907-43.199219c.441406-4.160157-2.566407-7.894531-6.726563-8.339844-4.167969-.453125-7.894531 2.5625-8.339844 6.726563l-4.628906 43.199218c-3.4375 32.042969-30.324219 56.207032-62.542969 56.207032h-14.085937c11.453125-16.058594 18.667969-35.378907 19.929687-56.375l11.324219-187.941407c1.511719-25.078125-5.425781-49.160156-19.699219-69.21875 22.90625 1.578125 44.476563 12.023438 59.917969 29.207031 16.804687 18.703126 24.90625 43.773438 22.226563 68.777344l-8.636719 80.625c-.445313 4.160156 2.566406 7.894532 6.726562 8.339844.273438.03125.546875.042969.8125.042969 3.824219 0 7.109375-2.882813 7.527344-6.769531l8.636719-80.625c3.136718-29.273438-6.347656-58.621094-26.023438-80.519532zm-66.613281 49.226563-11.324219 187.941406c-2.964844 49.246094-43.9375 87.824219-93.273437 87.824219-49.632813.746094-92.671875-37.910156-95.679688-87.824219l-11.320312-187.941406c-1.566407-25.980469 7.398437-50.722657 25.238281-69.675781 17.84375-18.949219 42.003906-29.382813 68.03125-29.382813h25.050781c26.03125 0 50.191407 10.433594 68.03125 29.382813 17.84375 18.953124 26.808594 43.695312 25.246094 69.675781zm0 0"/><path d="m378.292969 360.359375c4.164062.445313-4.164063-.453125 0 0zm0 0"/></svg>