<?xml version="1.0" encoding="iso-8859-1"?>
<!-- Generator: Adobe Illustrator 19.0.0, SVG Export Plug-In . SVG Version: 6.00 Build 0)  -->
<svg version="1.1" id="Capa_1" xmlns="http://www.w3.org/2000/svg" xmlns:xlink="http://www.w3.org/1999/xlink" x="0px" y="0px"
	 viewBox="0 0 437.136 437.136" style="enable-background:new 0 0 437.136 437.136;" xml:space="preserve">
<path style="fill:#50AC25;" d="M154.438,169.538c8-8,15.2-16,21.6-24.8v-0.8l-0.8-0.8c-4,0.8-8,0.8-12.8,0.8
	c-13.6,0-27.2-5.6-37.6-14.4l-17.6-15.2l23.2,1.6c2.4,0,4.8,0,8,0c23.2-0.8,45.6-4,68-10.4l0.8-0.8c8-29.6-9.6-61.6-9.6-62.4
	c-4.8-8-2.4-18.4,5.6-23.2c0,0,0.8,0,0.8-0.8c3.2-2.4,7.2-4.8,10.4-7.2l3.2-1.6l4.8,1.6c23.2,10.4,24.8,46.4,25.6,71.2
	c0,6.4,0.8,13.6,2.4,20c0.8,2.4,6.4,12,56,20l22.4,4l-20,11.2c-8.8,4.8-17.6,8-27.2,10.4c0,0-0.8,0-0.8,0.8v0.8
	c2.4,8,6.4,14.4,12,20.8l12.8,16.8l-20.8-4c-22.4-4-42.4-16-56.8-32.8l-0.8-0.8h-0.8c-16,18.4-38.4,31.2-63.2,34.4l-26.4,3.2
	L154.438,169.538z"/>
<path style="fill:#84D10F;" d="M276.038,121.538c-11.2-2.4-21.6-9.6-25.6-20.8c-1.6-8-2.4-16-1.6-24c-0.8-23.2-9.6-54.4-31.2-63.2
	c-3.2,1.6-6.4,3.2-9.6,5.6c-0.8,0.8-1.6,0.8-2.4,1.6c-4,1.6-6.4,6.4-4.8,11.2c0,0.8,0.8,1.6,0.8,2.4c9.6,20.8,11.2,44,5.6,65.6
	c-0.8,3.2-4,5.6-7.2,6.4c-6.4,6.4-15.2,11.2-24,12c17.6,5.6,36,8.8,55.2,8.8C245.638,127.938,260.838,125.538,276.038,121.538z"/>
<path style="fill:#D60606;" d="M217.638,427.138c-84-0.8-151.2-69.6-150.4-153.6c0.8-52.8,28.8-101.6,73.6-128.8l3.2-1.6l3.2,0.8
	c3.2,0.8,6.4,1.6,8.8,1.6l16,1.6l-10.4,12c-20,22.4-28,24-31.2,24.8c-0.8,0-0.8,0.8-0.8,0.8c0,0.8,0.8,0.8,0.8,0.8l0,0
	c3.2,0.8,7.2,0.8,10.4,0.8c28.8,0.8,56.8-9.6,78.4-29.6l5.6-5.6l5.6,5.6c20,19.2,46.4,29.6,74.4,29.6h1.6c0.8,0,0.8,0,0.8-0.8v-0.8
	c-8-8-15.2-16.8-21.6-26.4l-4-8l13.6-4.8l3.2,2.4c71.2,44,92,137.6,47.2,208.8C318.438,400.738,269.638,427.138,217.638,427.138z"/>
<path style="fill:#E82525;" d="M89.638,275.938c0-32.8,11.2-64.8,32-89.6l0,0c8.8-10.4,19.2-20,30.4-28l3.2-4c4-7.2-8-8-12-8.8
	c-44,25.6-80,82.4-80,133.6c0,79.2,84,169.6,162.4,147.2c2.4-0.8,4-4,0-6.4C149.638,415.138,89.638,351.938,89.638,275.938z"/>
<path style="fill:#BA0808;" d="M308.038,163.938c50.4,60.8,42.4,151.2-18.4,201.6c-52.8,44-130.4,44-183.2,0
	c-11.2,29.6,66.4,64.8,112,64.8c79.2,0,155.2-76,155.2-155.2C372.838,231.938,328.038,154.338,308.038,163.938z"/>
<path style="fill:#FFFFFF;" d="M179.238,374.338c-44-12.8-58.4-57.6-58.4-58.4c-1.6-4.8-6.4-7.2-11.2-6.4c-4.8,1.6-7.2,6.4-6.4,11.2
	c0.8,2.4,16.8,54.4,70.4,70.4c4.8,1.6,9.6-1.6,11.2-6.4S184.038,375.938,179.238,374.338L179.238,374.338z"/>
<path style="fill:#1C1211;" d="M313.638,145.538c7.2-4,14.4-9.6,20-16c3.2-4,2.4-9.6-0.8-12.8c-1.6-0.8-3.2-1.6-4.8-2.4
	c-32-4-63.2-11.2-68.8-16.8c-0.8-5.6-0.8-10.4-0.8-16c-0.8-25.6-2.4-68.8-33.6-80.8c-8-3.2-19.2,4.8-24,8.8
	c-12.8,7.2-17.6,24-10.4,36.8c8,15.2,11.2,32.8,10.4,50.4c-19.2,4.8-40,8-60,8.8c-8.8,0.8-17.6-0.8-26.4-4.8c-4.8-2.4-9.6-0.8-12,4
	c-1.6,2.4-1.6,5.6,0,8c5.6,12,14.4,21.6,24.8,29.6c-73.6,50.4-92,151.2-41.6,224.8s151.2,92,224.8,41.6s91.2-151.2,40.8-224.8
	C340.838,169.538,328.038,155.938,313.638,145.538z M139.238,123.938c24-0.8,47.2-4.8,70.4-11.2c3.2-0.8,5.6-3.2,6.4-6.4
	c8.8-32.8-9.6-67.2-10.4-68c-2.4-4-1.6-9.6,2.4-12.8l0.8-0.8c0.8,0,1.6-0.8,1.6-1.6c2.4-2.4,4.8-4,8-5.6c18.4,8,20,41.6,20.8,64
	c0,7.2,0.8,14.4,2.4,20.8c4,12.8,32.8,20.8,62.4,25.6c-8,4.8-16.8,8-25.6,9.6c-4.8,0.8-8,5.6-7.2,10.4c0,0,0,0,0,0.8
	c3.2,8.8,7.2,16.8,13.6,24c-20-4-38.4-14.4-52-30.4c-1.6-2.4-4-3.2-7.2-3.2c-2.4,0-5.6,0.8-7.2,3.2c-15.2,16.8-36,28-58.4,31.2
	c8-8,15.2-16.8,22.4-25.6c3.2-4,2.4-9.6-1.6-12.8c-1.6-1.6-4-1.6-5.6-1.6h-1.6c-3.2,0.8-7.2,0.8-11.2,0.8c-12,0-23.2-4.8-32-12.8
	C133.638,123.938,136.838,123.938,139.238,123.938z M217.638,419.138c-79.2,0-144-64-144-143.2c0-51.2,27.2-98.4,71.2-124
	c3.2,0.8,7.2,1.6,10.4,2.4c-9.6,10.4-20.8,20.8-26.4,22.4c-4.8,0.8-8.8,4.8-8,10.4c0.8,4.8,4,8,8.8,8c4,0.8,8,0.8,12,0.8
	c31.2,0.8,61.6-10.4,84-32c21.6,20.8,50.4,32,80,32h1.6c4.8,0.8,9.6-3.2,10.4-8c0-3.2-0.8-6.4-3.2-8c-7.2-7.2-14.4-16-20-24.8h0.8
	c67.2,42.4,86.4,131.2,44,198.4C312.038,393.538,266.438,419.138,217.638,419.138z"/>
<g>
</g>
<g>
</g>
<g>
</g>
<g>
</g>
<g>
</g>
<g>
</g>
<g>
</g>
<g>
</g>
<g>
</g>
<g>
</g>
<g>
</g>
<g>
</g>
<g>
</g>
<g>
</g>
<g>
</g>
</svg>
