<?xml version="1.0" encoding="iso-8859-1"?>
<!-- Generator: Adobe Illustrator 19.0.0, SVG Export Plug-In . SVG Version: 6.00 Build 0)  -->
<svg version="1.1" id="Layer_1" xmlns="http://www.w3.org/2000/svg" xmlns:xlink="http://www.w3.org/1999/xlink" x="0px" y="0px"
	 viewBox="0 0 512 512" style="enable-background:new 0 0 512 512;" xml:space="preserve">
<g>
	<g>
		<g>
			<path d="M59.733,477.847H76.8c4.71,0,8.533-3.823,8.533-8.533s-3.823-8.533-8.533-8.533H59.733c-4.71,0-8.533,3.823-8.533,8.533
				S55.023,477.847,59.733,477.847z"/>
			<path d="M162.133,477.847H179.2c4.71,0,8.533-3.823,8.533-8.533s-3.823-8.533-8.533-8.533h-17.067
				c-4.71,0-8.533,3.823-8.533,8.533S157.423,477.847,162.133,477.847z"/>
			<path d="M162.133,170.647H179.2c4.71,0,8.533-3.823,8.533-8.533c0-4.71-3.823-8.533-8.533-8.533h-17.067
				c-4.71,0-8.533,3.823-8.533,8.533C153.6,166.824,157.423,170.647,162.133,170.647z"/>
			<path d="M213.333,477.847H230.4c4.71,0,8.533-3.823,8.533-8.533s-3.823-8.533-8.533-8.533h-17.067
				c-4.71,0-8.533,3.823-8.533,8.533S208.623,477.847,213.333,477.847z"/>
			<path d="M110.933,170.647H128c4.71,0,8.533-3.823,8.533-8.533c0-4.71-3.823-8.533-8.533-8.533h-17.067
				c-4.71,0-8.533,3.823-8.533,8.533C102.4,166.824,106.223,170.647,110.933,170.647z"/>
			<path d="M59.733,170.647H76.8c4.71,0,8.533-3.823,8.533-8.533c0-4.71-3.823-8.533-8.533-8.533H59.733
				c-4.71,0-8.533,3.823-8.533,8.533C51.2,166.824,55.023,170.647,59.733,170.647z"/>
			<path d="M486.4,375.447c-4.71,0-8.533,3.823-8.533,8.533v85.333c0,14.114-11.486,25.6-25.6,25.6h-409.6
				c-14.114,0-25.6-11.486-25.6-25.6V127.98c0-15.522,14.43-26.522,28.049-30.225l256.742-77.056
				c5.163-2.082,21.99-6.622,31.275-0.341c5.444,3.678,8.201,11.179,8.201,22.289c0,4.71,3.823,8.533,8.533,8.533
				s8.533-3.823,8.533-8.533c0-17.126-5.291-29.389-15.718-36.429c-18.355-12.399-44.305-2.517-46.464-1.613L40.431,81.345
				C20.301,86.815,0,103.361,0,127.98v341.333c0,23.526,19.14,42.667,42.667,42.667h409.6c23.526,0,42.667-19.14,42.667-42.667
				V383.98C494.933,379.27,491.11,375.447,486.4,375.447z"/>
			<path d="M213.333,170.647H230.4c4.71,0,8.533-3.823,8.533-8.533c0-4.71-3.823-8.533-8.533-8.533h-17.067
				c-4.71,0-8.533,3.823-8.533,8.533C204.8,166.824,208.623,170.647,213.333,170.647z"/>
			<path d="M110.933,477.847H128c4.71,0,8.533-3.823,8.533-8.533s-3.823-8.533-8.533-8.533h-17.067c-4.71,0-8.533,3.823-8.533,8.533
				S106.223,477.847,110.933,477.847z"/>
			<path d="M494.933,273.047V162.113c0-23.526-19.14-42.667-42.667-42.667H133.069l269.764-51.379
				c0.085-0.026,9.779-1.911,16.393,3.49c4.941,4.036,7.441,11.537,7.441,22.289c0,4.71,3.823,8.533,8.533,8.533
				s8.533-3.823,8.533-8.533c0-16.239-4.676-28.237-13.892-35.661c-13.039-10.487-29.892-6.963-30.37-6.852L41.071,119.6
				c-4.326,0.819-7.313,4.804-6.903,9.182c0.418,4.378,4.096,7.731,8.499,7.731h409.6c14.114,0,25.6,11.486,25.6,25.6v110.933H307.2
				c-9.412,0-17.067,7.654-17.067,17.067v51.2c0,9.412,7.654,17.067,17.067,17.067h187.733c9.412,0,17.067-7.654,17.067-17.067
				v-51.2C512,280.701,504.346,273.047,494.933,273.047z M307.2,341.313v-51.2h187.733l0.009,51.2H307.2z"/>
			<path d="M384,170.647c4.71,0,8.533-3.823,8.533-8.533c0-4.71-3.823-8.533-8.533-8.533h-17.067c-4.71,0-8.533,3.823-8.533,8.533
				c0,4.71,3.823,8.533,8.533,8.533H384z"/>
			<path d="M332.8,170.647c4.71,0,8.533-3.823,8.533-8.533c0-4.71-3.823-8.533-8.533-8.533h-17.067c-4.71,0-8.533,3.823-8.533,8.533
				c0,4.71,3.823,8.533,8.533,8.533H332.8z"/>
			<path d="M435.2,170.647c4.71,0,8.533-3.823,8.533-8.533c0-4.71-3.823-8.533-8.533-8.533h-17.067c-4.71,0-8.533,3.823-8.533,8.533
				c0,4.71,3.823,8.533,8.533,8.533H435.2z"/>
			<path d="M333.056,307.18h-0.085c-4.71,0-8.491,3.823-8.491,8.533s3.866,8.533,8.576,8.533c4.719,0,8.533-3.823,8.533-8.533
				S337.775,307.18,333.056,307.18z"/>
			<path d="M332.8,477.847c4.71,0,8.533-3.823,8.533-8.533s-3.823-8.533-8.533-8.533h-17.067c-4.71,0-8.533,3.823-8.533,8.533
				s3.823,8.533,8.533,8.533H332.8z"/>
			<path d="M435.2,477.847c4.71,0,8.533-3.823,8.533-8.533s-3.823-8.533-8.533-8.533h-17.067c-4.71,0-8.533,3.823-8.533,8.533
				s3.823,8.533,8.533,8.533H435.2z"/>
			<path d="M264.533,170.647H281.6c4.71,0,8.533-3.823,8.533-8.533c0-4.71-3.823-8.533-8.533-8.533h-17.067
				c-4.71,0-8.533,3.823-8.533,8.533C256,166.824,259.823,170.647,264.533,170.647z"/>
			<path d="M264.533,477.847H281.6c4.71,0,8.533-3.823,8.533-8.533s-3.823-8.533-8.533-8.533h-17.067
				c-4.71,0-8.533,3.823-8.533,8.533S259.823,477.847,264.533,477.847z"/>
			<path d="M384,477.847c4.71,0,8.533-3.823,8.533-8.533s-3.823-8.533-8.533-8.533h-17.067c-4.71,0-8.533,3.823-8.533,8.533
				s3.823,8.533,8.533,8.533H384z"/>
		</g>
	</g>
</g>
<g>
</g>
<g>
</g>
<g>
</g>
<g>
</g>
<g>
</g>
<g>
</g>
<g>
</g>
<g>
</g>
<g>
</g>
<g>
</g>
<g>
</g>
<g>
</g>
<g>
</g>
<g>
</g>
<g>
</g>
</svg>
